%
M48
M72
T01C0.0236
T02C0.0276
T03C0.0320
T04C0.0400
T05C0.0433
T06C0.0787
T07C0.1102
T08C0.1260
%
T01
X15975Y3450
X16100Y6500
X15400Y11350
X19425Y12275
X19850Y13800
X18100Y14550
X23575Y14351
X6200Y12025
X2925Y9875
T02
X3435Y12631
X4222Y12631
X5009Y12631
X5797Y12631
X6584Y12631
X7372Y12631
X8159Y12631
X8946Y12631
X9734Y12631
X10521Y12631
X10521Y3969
X9734Y3969
X8946Y3969
X8159Y3969
X7372Y3969
X6584Y3969
X5797Y3969
X5009Y3969
X4222Y3969
X3435Y3969
T03
X19374Y6738
X20724Y6738
X20724Y7738
X19374Y7738
T04
X24350Y15250
X25350Y15350
X26350Y15250
T05
X22850Y14350
X19850Y14350
X12925Y11300
X11925Y11300
X10925Y11300
X9925Y11300
X8925Y11300
X7925Y11300
X6925Y11300
X5925Y11300
X4925Y11300
X3925Y11300
X2925Y11300
X1925Y11300
X925Y10800
X925Y9800
X925Y8800
X925Y7800
X925Y6800
X925Y5800
X1925Y5300
X2925Y5300
X3925Y5300
X4925Y5300
X5925Y5300
X6925Y5300
X7925Y5300
X8925Y5300
X9925Y5300
X10925Y5300
X11925Y5300
X12925Y5300
X19650Y1800
X22650Y1800
X24824Y1788
X25824Y1788
X26824Y1788
X6425Y10300
X5425Y10300
T06
X31170Y10800
X32350Y8975
X32350Y7625
X31170Y5800
X32350Y3975
X32350Y12625
T07
X26920Y8300
X22550Y8300
T08
X5800Y2050
X30800Y2050
X30800Y14550
X5800Y14550
M30
