G75*
%MOIN*%
%OFA0B0*%
%FSLAX25Y25*%
%IPPOS*%
%LPD*%
%AMOC8*
5,1,8,0,0,1.08239X$1,22.5*
%
%ADD10C,0.07193*%
%ADD11OC8,0.05300*%
%ADD12R,0.04437X0.06012*%
%ADD13R,0.06012X0.04437*%
%ADD14R,0.05618X0.06406*%
%ADD15R,0.06406X0.05618*%
%ADD16C,0.06996*%
%ADD17R,0.03650X0.04043*%
%ADD18R,0.06996X0.06996*%
%ADD19C,0.12311*%
%ADD20R,0.07900X0.07900*%
%ADD21C,0.07900*%
%ADD22C,0.06100*%
%ADD23R,0.06100X0.06100*%
%ADD24C,0.13098*%
%ADD25C,0.11524*%
%ADD26R,0.04262X0.04262*%
D10*
X0196500Y0018000D03*
X0226500Y0018000D03*
X0228500Y0143500D03*
X0198500Y0143500D03*
D11*
X0193744Y0077382D03*
X0207244Y0077382D03*
X0207244Y0067382D03*
X0193744Y0067382D03*
D12*
X0184740Y0063669D03*
X0177260Y0063669D03*
X0181000Y0072331D03*
X0177260Y0111669D03*
X0184740Y0111669D03*
X0181000Y0120331D03*
D13*
X0206669Y0116740D03*
X0215331Y0113000D03*
X0206669Y0109260D03*
X0156669Y0082240D03*
X0165331Y0078500D03*
X0156669Y0074760D03*
D14*
X0147240Y0083500D03*
X0139760Y0083500D03*
X0177260Y0101000D03*
X0184740Y0101000D03*
X0209760Y0126000D03*
X0217240Y0126000D03*
X0234760Y0131000D03*
X0242240Y0131000D03*
X0184240Y0035500D03*
X0176760Y0035500D03*
D15*
X0177000Y0025240D03*
X0177000Y0017760D03*
X0178000Y0047260D03*
X0178000Y0054740D03*
X0207500Y0055740D03*
X0207500Y0048260D03*
X0176000Y0082260D03*
X0176000Y0089740D03*
X0196500Y0099760D03*
X0196500Y0107240D03*
X0253500Y0122260D03*
X0266000Y0122260D03*
X0266000Y0129740D03*
X0253500Y0129740D03*
D16*
X0129250Y0113000D03*
X0119250Y0113000D03*
X0109250Y0113000D03*
X0099250Y0113000D03*
X0089250Y0113000D03*
X0079250Y0113000D03*
X0069250Y0113000D03*
X0059250Y0113000D03*
X0049250Y0113000D03*
X0039250Y0113000D03*
X0029250Y0113000D03*
X0019250Y0113000D03*
X0009250Y0108000D03*
X0009250Y0098000D03*
X0009250Y0088000D03*
X0009250Y0078000D03*
X0009250Y0068000D03*
X0009250Y0058000D03*
X0019250Y0053000D03*
X0029250Y0053000D03*
X0039250Y0053000D03*
X0049250Y0053000D03*
X0059250Y0053000D03*
X0069250Y0053000D03*
X0079250Y0053000D03*
X0089250Y0053000D03*
X0099250Y0053000D03*
X0109250Y0053000D03*
X0119250Y0053000D03*
X0129250Y0053000D03*
X0064250Y0103000D03*
X0054250Y0103000D03*
D17*
X0054000Y0087081D03*
X0050260Y0078813D03*
X0057740Y0078813D03*
D18*
X0248244Y0017882D03*
X0258244Y0017882D03*
X0268244Y0017882D03*
D19*
X0323500Y0039750D03*
X0311700Y0058000D03*
X0323500Y0076250D03*
X0323500Y0089750D03*
X0311700Y0108000D03*
X0323500Y0126250D03*
D20*
X0243500Y0152500D03*
D21*
X0253500Y0153500D03*
X0263500Y0152500D03*
D22*
X0105213Y0126307D03*
X0097339Y0126307D03*
X0089465Y0126307D03*
X0081591Y0126307D03*
X0073717Y0126307D03*
X0065843Y0126307D03*
X0057969Y0126307D03*
X0050094Y0126307D03*
X0042220Y0126307D03*
X0042220Y0039693D03*
X0034346Y0039693D03*
X0050094Y0039693D03*
X0057969Y0039693D03*
X0065843Y0039693D03*
X0073717Y0039693D03*
X0081591Y0039693D03*
X0089465Y0039693D03*
X0097339Y0039693D03*
X0105213Y0039693D03*
D23*
X0034346Y0126307D03*
D24*
X0058000Y0020500D03*
X0308000Y0020500D03*
X0308000Y0145500D03*
X0058000Y0145500D03*
D25*
X0225500Y0083000D03*
X0269200Y0083000D03*
D26*
X0194250Y0122750D03*
X0198500Y0138000D03*
X0181000Y0145500D03*
X0235750Y0143510D03*
X0154000Y0113500D03*
X0062000Y0120250D03*
X0029250Y0098750D03*
X0161000Y0065000D03*
X0159750Y0034500D03*
M02*
