G75*
%MOIN*%
%OFA0B0*%
%FSLAX25Y25*%
%IPPOS*%
%LPD*%
%AMOC8*
5,1,8,0,0,1.08239X$1,22.5*
%
%ADD10C,0.01200*%
%ADD11C,0.00500*%
%ADD12C,0.00400*%
D10*
X0311700Y0039750D02*
X0328500Y0039750D01*
X0311700Y0039750D02*
X0311700Y0048000D01*
X0311700Y0068000D01*
X0311700Y0076250D01*
X0328500Y0076250D01*
X0328500Y0089750D02*
X0311700Y0089750D01*
X0311700Y0093000D01*
X0311700Y0123000D01*
X0311700Y0126250D01*
X0328500Y0126250D01*
D11*
X0028441Y0033787D02*
X0002850Y0065283D01*
X0002850Y0102685D01*
X0028441Y0132213D01*
X0111118Y0132213D01*
X0111118Y0033787D01*
X0028441Y0033787D01*
X0113500Y0030500D02*
X0298500Y0030500D01*
X0298500Y0135500D01*
X0113500Y0135500D01*
X0113500Y0030500D01*
X0215500Y0030500D02*
X0215500Y0045500D01*
X0278000Y0045500D01*
X0278000Y0030500D01*
X0215500Y0030500D01*
X0215500Y0045500D02*
X0215500Y0120500D01*
X0278000Y0120500D01*
X0278000Y0045500D01*
X0303500Y0048000D02*
X0311700Y0048000D01*
X0303500Y0048000D02*
X0303500Y0068000D01*
X0311700Y0068000D01*
X0311700Y0093000D02*
X0303500Y0093000D01*
X0303500Y0123000D01*
X0311700Y0123000D01*
X0278000Y0120500D02*
X0278000Y0135500D01*
X0215500Y0135500D01*
X0215500Y0120500D01*
X0238500Y0141000D02*
X0268500Y0141000D01*
X0268500Y0163000D01*
X0263500Y0163000D01*
X0263500Y0158000D01*
X0243500Y0158000D01*
X0243500Y0163000D01*
X0238500Y0163000D01*
X0238500Y0141000D01*
X0243500Y0163000D02*
X0263500Y0163000D01*
D12*
X0114192Y0093476D02*
X0114192Y0090407D01*
X0114192Y0088872D02*
X0117261Y0088872D01*
X0118796Y0087338D01*
X0117261Y0085803D01*
X0114192Y0085803D01*
X0116494Y0085803D02*
X0116494Y0088872D01*
X0117261Y0090407D02*
X0118796Y0091942D01*
X0114192Y0091942D01*
X0250700Y0086269D02*
X0250700Y0083200D01*
X0253769Y0086269D01*
X0254537Y0086269D01*
X0255304Y0085502D01*
X0255304Y0083967D01*
X0254537Y0083200D01*
X0255304Y0081665D02*
X0250700Y0081665D01*
X0253769Y0080131D02*
X0255304Y0081665D01*
X0253769Y0080131D02*
X0255304Y0078596D01*
X0250700Y0078596D01*
M02*
