G75*
%MOIN*%
%OFA0B0*%
%FSLAX25Y25*%
%IPPOS*%
%LPD*%
%AMOC8*
5,1,8,0,0,1.08239X$1,22.5*
%
%ADD10C,0.06693*%
%ADD11OC8,0.04800*%
%ADD12R,0.03937X0.05512*%
%ADD13R,0.05512X0.03937*%
%ADD14R,0.05118X0.05906*%
%ADD15R,0.05906X0.05118*%
%ADD16C,0.06496*%
%ADD17R,0.03150X0.03543*%
%ADD18R,0.06496X0.06496*%
%ADD19C,0.11811*%
%ADD20R,0.07400X0.07400*%
%ADD21C,0.07400*%
%ADD22C,0.05600*%
%ADD23R,0.05600X0.05600*%
%ADD24C,0.01600*%
%ADD25R,0.03762X0.03762*%
%ADD26C,0.01000*%
D10*
X0196500Y0018000D03*
X0226500Y0018000D03*
X0228500Y0143500D03*
X0198500Y0143500D03*
D11*
X0193744Y0077382D03*
X0207244Y0077382D03*
X0207244Y0067382D03*
X0193744Y0067382D03*
D12*
X0184740Y0063669D03*
X0177260Y0063669D03*
X0181000Y0072331D03*
X0177260Y0111669D03*
X0184740Y0111669D03*
X0181000Y0120331D03*
D13*
X0206669Y0116740D03*
X0215331Y0113000D03*
X0206669Y0109260D03*
X0156669Y0082240D03*
X0165331Y0078500D03*
X0156669Y0074760D03*
D14*
X0147240Y0083500D03*
X0139760Y0083500D03*
X0177260Y0101000D03*
X0184740Y0101000D03*
X0209760Y0126000D03*
X0217240Y0126000D03*
X0234760Y0131000D03*
X0242240Y0131000D03*
X0184240Y0035500D03*
X0176760Y0035500D03*
D15*
X0177000Y0025240D03*
X0177000Y0017760D03*
X0178000Y0047260D03*
X0178000Y0054740D03*
X0207500Y0055740D03*
X0207500Y0048260D03*
X0176000Y0082260D03*
X0176000Y0089740D03*
X0196500Y0099760D03*
X0196500Y0107240D03*
X0253500Y0122260D03*
X0266000Y0122260D03*
X0266000Y0129740D03*
X0253500Y0129740D03*
D16*
X0129250Y0113000D03*
X0119250Y0113000D03*
X0109250Y0113000D03*
X0099250Y0113000D03*
X0089250Y0113000D03*
X0079250Y0113000D03*
X0069250Y0113000D03*
X0059250Y0113000D03*
X0049250Y0113000D03*
X0039250Y0113000D03*
X0029250Y0113000D03*
X0019250Y0113000D03*
X0009250Y0108000D03*
X0009250Y0098000D03*
X0009250Y0088000D03*
X0009250Y0078000D03*
X0009250Y0068000D03*
X0009250Y0058000D03*
X0019250Y0053000D03*
X0029250Y0053000D03*
X0039250Y0053000D03*
X0049250Y0053000D03*
X0059250Y0053000D03*
X0069250Y0053000D03*
X0079250Y0053000D03*
X0089250Y0053000D03*
X0099250Y0053000D03*
X0109250Y0053000D03*
X0119250Y0053000D03*
X0129250Y0053000D03*
X0064250Y0103000D03*
X0054250Y0103000D03*
D17*
X0054000Y0087081D03*
X0050260Y0078813D03*
X0057740Y0078813D03*
D18*
X0248244Y0017882D03*
X0258244Y0017882D03*
X0268244Y0017882D03*
D19*
X0323500Y0039750D03*
X0311700Y0058000D03*
X0323500Y0076250D03*
X0323500Y0089750D03*
X0311700Y0108000D03*
X0323500Y0126250D03*
D20*
X0243500Y0152500D03*
D21*
X0253500Y0153500D03*
X0263500Y0152500D03*
D22*
X0105213Y0126307D03*
X0097339Y0126307D03*
X0089465Y0126307D03*
X0081591Y0126307D03*
X0073717Y0126307D03*
X0065843Y0126307D03*
X0057969Y0126307D03*
X0050094Y0126307D03*
X0042220Y0126307D03*
X0042220Y0039693D03*
X0034346Y0039693D03*
X0050094Y0039693D03*
X0057969Y0039693D03*
X0065843Y0039693D03*
X0073717Y0039693D03*
X0081591Y0039693D03*
X0089465Y0039693D03*
X0097339Y0039693D03*
X0105213Y0039693D03*
D23*
X0034346Y0126307D03*
D24*
X0037300Y0027953D02*
X0037300Y0003300D01*
X0328700Y0003300D01*
X0328700Y0027953D01*
X0330047Y0029300D01*
X0336449Y0035702D01*
X0337500Y0037000D01*
X0337747Y0037000D01*
X0338047Y0037300D01*
X0362500Y0037300D01*
X0362500Y0128500D01*
X0339000Y0128500D01*
X0338800Y0128700D01*
X0338047Y0128700D01*
X0336700Y0130047D01*
X0328700Y0138047D01*
X0328700Y0162700D01*
X0037300Y0162700D01*
X0037300Y0138047D01*
X0035953Y0136700D01*
X0030602Y0131350D01*
X0028500Y0129000D01*
X0028253Y0129000D01*
X0027953Y0128700D01*
X0003300Y0128700D01*
X0003300Y0037300D01*
X0027953Y0037300D01*
X0028253Y0037000D01*
X0028500Y0037000D01*
X0037000Y0028500D01*
X0037000Y0028253D01*
X0037300Y0027953D01*
X0037078Y0028175D02*
X0054058Y0028175D01*
X0053129Y0027790D02*
X0050710Y0025371D01*
X0049401Y0022210D01*
X0049401Y0018790D01*
X0050710Y0015629D01*
X0053129Y0013210D01*
X0056290Y0011901D01*
X0059710Y0011901D01*
X0062871Y0013210D01*
X0065290Y0015629D01*
X0066599Y0018790D01*
X0066599Y0022210D01*
X0065290Y0025371D01*
X0062871Y0027790D01*
X0059710Y0029099D01*
X0056290Y0029099D01*
X0053129Y0027790D01*
X0051915Y0026576D02*
X0037300Y0026576D01*
X0037300Y0024978D02*
X0050547Y0024978D01*
X0049885Y0023379D02*
X0037300Y0023379D01*
X0037300Y0021781D02*
X0049401Y0021781D01*
X0049401Y0020182D02*
X0037300Y0020182D01*
X0037300Y0018584D02*
X0049486Y0018584D01*
X0050148Y0016985D02*
X0037300Y0016985D01*
X0037300Y0015387D02*
X0050952Y0015387D01*
X0052551Y0013788D02*
X0037300Y0013788D01*
X0037300Y0012190D02*
X0055592Y0012190D01*
X0060408Y0012190D02*
X0198633Y0012190D01*
X0197839Y0012984D02*
X0206296Y0004527D01*
X0207027Y0003796D01*
X0207983Y0003400D01*
X0271517Y0003400D01*
X0272473Y0003796D01*
X0284973Y0016296D01*
X0285704Y0017027D01*
X0286100Y0017983D01*
X0286100Y0072423D01*
X0300473Y0086796D01*
X0301204Y0087527D01*
X0301600Y0088483D01*
X0301600Y0093923D01*
X0308615Y0100938D01*
X0310167Y0100294D01*
X0313233Y0100294D01*
X0316065Y0101468D01*
X0318232Y0103635D01*
X0319405Y0106467D01*
X0319405Y0109533D01*
X0318232Y0112365D01*
X0316065Y0114532D01*
X0313233Y0115705D01*
X0310167Y0115705D01*
X0307335Y0114532D01*
X0305168Y0112365D01*
X0303994Y0109533D01*
X0303994Y0106467D01*
X0304813Y0104490D01*
X0296796Y0096473D01*
X0296400Y0095517D01*
X0296400Y0090077D01*
X0281296Y0074973D01*
X0280900Y0074017D01*
X0280900Y0019577D01*
X0269923Y0008600D01*
X0254500Y0008600D01*
X0254973Y0008796D01*
X0259011Y0012834D01*
X0262238Y0012834D01*
X0263244Y0013840D01*
X0264250Y0012834D01*
X0272238Y0012834D01*
X0273292Y0013888D01*
X0273292Y0021876D01*
X0272238Y0022930D01*
X0264250Y0022930D01*
X0263244Y0021924D01*
X0262238Y0022930D01*
X0254250Y0022930D01*
X0253244Y0021924D01*
X0252238Y0022930D01*
X0244250Y0022930D01*
X0243196Y0021876D01*
X0243196Y0013888D01*
X0243484Y0013600D01*
X0234577Y0013600D01*
X0231516Y0016661D01*
X0231646Y0016976D01*
X0231646Y0019024D01*
X0230863Y0020915D01*
X0229415Y0022363D01*
X0227524Y0023146D01*
X0225476Y0023146D01*
X0223585Y0022363D01*
X0222137Y0020915D01*
X0221354Y0019024D01*
X0221354Y0016976D01*
X0222137Y0015085D01*
X0223585Y0013637D01*
X0225476Y0012854D01*
X0227524Y0012854D01*
X0227839Y0012984D01*
X0231296Y0009527D01*
X0232027Y0008796D01*
X0232500Y0008600D01*
X0209577Y0008600D01*
X0201516Y0016661D01*
X0201646Y0016976D01*
X0201646Y0019024D01*
X0200863Y0020915D01*
X0199415Y0022363D01*
X0197524Y0023146D01*
X0195476Y0023146D01*
X0193585Y0022363D01*
X0192137Y0020915D01*
X0192006Y0020600D01*
X0181753Y0020600D01*
X0181753Y0021064D01*
X0181317Y0021500D01*
X0181753Y0021936D01*
X0181753Y0028545D01*
X0180698Y0029599D01*
X0179600Y0029599D01*
X0179600Y0030747D01*
X0180064Y0030747D01*
X0180500Y0031183D01*
X0180576Y0031107D01*
X0180986Y0030870D01*
X0181444Y0030747D01*
X0183761Y0030747D01*
X0183761Y0035020D01*
X0184720Y0035020D01*
X0184720Y0030747D01*
X0187036Y0030747D01*
X0187494Y0030870D01*
X0187904Y0031107D01*
X0188240Y0031442D01*
X0188477Y0031852D01*
X0188599Y0032310D01*
X0188599Y0035020D01*
X0184720Y0035020D01*
X0184720Y0035980D01*
X0183761Y0035980D01*
X0183761Y0040253D01*
X0181444Y0040253D01*
X0180986Y0040130D01*
X0180576Y0039893D01*
X0180500Y0039817D01*
X0180064Y0040253D01*
X0173455Y0040253D01*
X0172401Y0039198D01*
X0172401Y0038100D01*
X0162458Y0038100D01*
X0162377Y0038181D01*
X0157123Y0038181D01*
X0156069Y0037127D01*
X0156069Y0031873D01*
X0157123Y0030819D01*
X0162377Y0030819D01*
X0163431Y0031873D01*
X0163431Y0032900D01*
X0172401Y0032900D01*
X0172401Y0031802D01*
X0173455Y0030747D01*
X0174400Y0030747D01*
X0174400Y0029599D01*
X0173302Y0029599D01*
X0172247Y0028545D01*
X0172247Y0021936D01*
X0172683Y0021500D01*
X0172247Y0021064D01*
X0172247Y0014455D01*
X0173302Y0013401D01*
X0180698Y0013401D01*
X0181753Y0014455D01*
X0181753Y0015400D01*
X0192006Y0015400D01*
X0192137Y0015085D01*
X0193585Y0013637D01*
X0195476Y0012854D01*
X0197524Y0012854D01*
X0197839Y0012984D01*
X0200232Y0010591D02*
X0037300Y0010591D01*
X0037300Y0008993D02*
X0201830Y0008993D01*
X0203429Y0007394D02*
X0037300Y0007394D01*
X0037300Y0005796D02*
X0205028Y0005796D01*
X0206626Y0004197D02*
X0037300Y0004197D01*
X0063449Y0013788D02*
X0172914Y0013788D01*
X0172247Y0015387D02*
X0065048Y0015387D01*
X0065852Y0016985D02*
X0172247Y0016985D01*
X0172247Y0018584D02*
X0066514Y0018584D01*
X0066599Y0020182D02*
X0172247Y0020182D01*
X0172402Y0021781D02*
X0066599Y0021781D01*
X0066115Y0023379D02*
X0172247Y0023379D01*
X0172247Y0024978D02*
X0065453Y0024978D01*
X0064085Y0026576D02*
X0172247Y0026576D01*
X0172247Y0028175D02*
X0061942Y0028175D01*
X0064928Y0035093D02*
X0066758Y0035093D01*
X0068448Y0035793D01*
X0069742Y0037087D01*
X0069780Y0037177D01*
X0069817Y0037087D01*
X0071111Y0035793D01*
X0072802Y0035093D01*
X0074632Y0035093D01*
X0076322Y0035793D01*
X0077616Y0037087D01*
X0077654Y0037177D01*
X0077691Y0037087D01*
X0078985Y0035793D01*
X0080676Y0035093D01*
X0082506Y0035093D01*
X0084196Y0035793D01*
X0085490Y0037087D01*
X0085528Y0037177D01*
X0085565Y0037087D01*
X0086859Y0035793D01*
X0088550Y0035093D01*
X0090380Y0035093D01*
X0092070Y0035793D01*
X0093364Y0037087D01*
X0093402Y0037177D01*
X0093439Y0037087D01*
X0094733Y0035793D01*
X0096424Y0035093D01*
X0098254Y0035093D01*
X0099944Y0035793D01*
X0101238Y0037087D01*
X0101276Y0037177D01*
X0101313Y0037087D01*
X0102607Y0035793D01*
X0104298Y0035093D01*
X0106128Y0035093D01*
X0107818Y0035793D01*
X0109112Y0037087D01*
X0109813Y0038778D01*
X0109813Y0040608D01*
X0109112Y0042299D01*
X0107818Y0043593D01*
X0106128Y0044293D01*
X0104298Y0044293D01*
X0102607Y0043593D01*
X0101313Y0042299D01*
X0101276Y0042208D01*
X0101238Y0042299D01*
X0099944Y0043593D01*
X0098254Y0044293D01*
X0096424Y0044293D01*
X0094733Y0043593D01*
X0093439Y0042299D01*
X0093402Y0042208D01*
X0093364Y0042299D01*
X0092070Y0043593D01*
X0090380Y0044293D01*
X0088550Y0044293D01*
X0086859Y0043593D01*
X0085565Y0042299D01*
X0085528Y0042208D01*
X0085490Y0042299D01*
X0084196Y0043593D01*
X0082506Y0044293D01*
X0080676Y0044293D01*
X0078985Y0043593D01*
X0077691Y0042299D01*
X0077654Y0042208D01*
X0077616Y0042299D01*
X0076322Y0043593D01*
X0074632Y0044293D01*
X0072802Y0044293D01*
X0071111Y0043593D01*
X0069817Y0042299D01*
X0069780Y0042208D01*
X0069742Y0042299D01*
X0068448Y0043593D01*
X0066758Y0044293D01*
X0064928Y0044293D01*
X0063237Y0043593D01*
X0061943Y0042299D01*
X0061906Y0042208D01*
X0061868Y0042299D01*
X0060574Y0043593D01*
X0058884Y0044293D01*
X0057053Y0044293D01*
X0055363Y0043593D01*
X0054069Y0042299D01*
X0054031Y0042208D01*
X0053994Y0042299D01*
X0052700Y0043593D01*
X0051009Y0044293D01*
X0049179Y0044293D01*
X0047489Y0043593D01*
X0046195Y0042299D01*
X0046157Y0042208D01*
X0046120Y0042299D01*
X0044826Y0043593D01*
X0043135Y0044293D01*
X0041305Y0044293D01*
X0039615Y0043593D01*
X0038321Y0042299D01*
X0038283Y0042208D01*
X0038246Y0042299D01*
X0036952Y0043593D01*
X0035261Y0044293D01*
X0033431Y0044293D01*
X0031741Y0043593D01*
X0030447Y0042299D01*
X0029746Y0040608D01*
X0029746Y0038778D01*
X0030447Y0037087D01*
X0031741Y0035793D01*
X0033431Y0035093D01*
X0035261Y0035093D01*
X0036952Y0035793D01*
X0038246Y0037087D01*
X0038283Y0037177D01*
X0038321Y0037087D01*
X0039615Y0035793D01*
X0041305Y0035093D01*
X0043135Y0035093D01*
X0044826Y0035793D01*
X0046120Y0037087D01*
X0046157Y0037177D01*
X0046195Y0037087D01*
X0047489Y0035793D01*
X0049179Y0035093D01*
X0051009Y0035093D01*
X0052700Y0035793D01*
X0053994Y0037087D01*
X0054031Y0037177D01*
X0054069Y0037087D01*
X0055363Y0035793D01*
X0057053Y0035093D01*
X0058884Y0035093D01*
X0060574Y0035793D01*
X0061868Y0037087D01*
X0061906Y0037177D01*
X0061943Y0037087D01*
X0063237Y0035793D01*
X0064928Y0035093D01*
X0062863Y0036167D02*
X0060948Y0036167D01*
X0054989Y0036167D02*
X0053074Y0036167D01*
X0047115Y0036167D02*
X0045200Y0036167D01*
X0039241Y0036167D02*
X0037326Y0036167D01*
X0032530Y0032970D02*
X0156069Y0032970D01*
X0156069Y0034569D02*
X0030931Y0034569D01*
X0031367Y0036167D02*
X0029333Y0036167D01*
X0030166Y0037766D02*
X0003300Y0037766D01*
X0003300Y0039364D02*
X0029746Y0039364D01*
X0029893Y0040963D02*
X0003300Y0040963D01*
X0003300Y0042561D02*
X0030709Y0042561D01*
X0033110Y0044160D02*
X0003300Y0044160D01*
X0003300Y0045758D02*
X0163065Y0045758D01*
X0163767Y0045056D02*
X0164723Y0044660D01*
X0173247Y0044660D01*
X0173247Y0043955D01*
X0174302Y0042901D01*
X0181698Y0042901D01*
X0182753Y0043955D01*
X0182753Y0044660D01*
X0203043Y0044660D01*
X0203802Y0043901D01*
X0211198Y0043901D01*
X0212253Y0044955D01*
X0212253Y0051564D01*
X0211817Y0052000D01*
X0212253Y0052436D01*
X0212253Y0059045D01*
X0211198Y0060099D01*
X0209844Y0060099D01*
X0209844Y0064042D01*
X0211444Y0065642D01*
X0211444Y0069122D01*
X0208984Y0071582D01*
X0205504Y0071582D01*
X0203044Y0069122D01*
X0203044Y0065642D01*
X0204644Y0064042D01*
X0204644Y0060099D01*
X0203802Y0060099D01*
X0202747Y0059045D01*
X0202747Y0052436D01*
X0203183Y0052000D01*
X0202747Y0051564D01*
X0202747Y0049860D01*
X0182753Y0049860D01*
X0182753Y0050564D01*
X0182317Y0051000D01*
X0182753Y0051436D01*
X0182753Y0058045D01*
X0181698Y0059099D01*
X0179860Y0059099D01*
X0179860Y0059113D01*
X0179974Y0059113D01*
X0181028Y0060168D01*
X0181028Y0060465D01*
X0181094Y0060219D01*
X0181331Y0059808D01*
X0181666Y0059473D01*
X0182077Y0059236D01*
X0182535Y0059113D01*
X0184556Y0059113D01*
X0184556Y0063485D01*
X0184924Y0063485D01*
X0184924Y0059113D01*
X0186946Y0059113D01*
X0187403Y0059236D01*
X0187814Y0059473D01*
X0188149Y0059808D01*
X0188386Y0060219D01*
X0188509Y0060676D01*
X0188509Y0063485D01*
X0184924Y0063485D01*
X0184924Y0063854D01*
X0184556Y0063854D01*
X0184556Y0068225D01*
X0184164Y0068225D01*
X0184768Y0068829D01*
X0184768Y0072422D01*
X0187128Y0074782D01*
X0190404Y0074782D01*
X0192004Y0073182D01*
X0195484Y0073182D01*
X0197944Y0075642D01*
X0197944Y0077905D01*
X0198704Y0078665D01*
X0199100Y0079621D01*
X0199100Y0095401D01*
X0200198Y0095401D01*
X0200310Y0095513D01*
X0203046Y0092777D01*
X0203777Y0092046D01*
X0204733Y0091650D01*
X0213017Y0091650D01*
X0213973Y0092046D01*
X0215973Y0094046D01*
X0216704Y0094777D01*
X0216881Y0095204D01*
X0224473Y0102796D01*
X0225204Y0103527D01*
X0225600Y0104483D01*
X0225600Y0120757D01*
X0225204Y0121713D01*
X0221599Y0125318D01*
X0221599Y0126724D01*
X0222027Y0126296D01*
X0227027Y0121296D01*
X0227983Y0120900D01*
X0248747Y0120900D01*
X0248747Y0118955D01*
X0249802Y0117901D01*
X0257198Y0117901D01*
X0258253Y0118955D01*
X0258253Y0119660D01*
X0261247Y0119660D01*
X0261247Y0118955D01*
X0262302Y0117901D01*
X0269698Y0117901D01*
X0270753Y0118955D01*
X0270753Y0125564D01*
X0270317Y0126000D01*
X0270393Y0126076D01*
X0270630Y0126486D01*
X0270753Y0126944D01*
X0270753Y0129261D01*
X0266480Y0129261D01*
X0266480Y0130220D01*
X0270753Y0130220D01*
X0270753Y0132536D01*
X0270630Y0132994D01*
X0270393Y0133404D01*
X0270058Y0133740D01*
X0269648Y0133977D01*
X0269190Y0134099D01*
X0266480Y0134099D01*
X0266480Y0130220D01*
X0265520Y0130220D01*
X0265520Y0129261D01*
X0261247Y0129261D01*
X0261247Y0126944D01*
X0261370Y0126486D01*
X0261607Y0126076D01*
X0261683Y0126000D01*
X0261247Y0125564D01*
X0261247Y0124860D01*
X0258253Y0124860D01*
X0258253Y0125564D01*
X0257817Y0126000D01*
X0258253Y0126436D01*
X0258253Y0133045D01*
X0257198Y0134099D01*
X0256100Y0134099D01*
X0256100Y0148624D01*
X0256615Y0148837D01*
X0258163Y0150384D01*
X0258298Y0150711D01*
X0258403Y0150389D01*
X0258796Y0149617D01*
X0259305Y0148917D01*
X0259917Y0148305D01*
X0260617Y0147796D01*
X0261389Y0147403D01*
X0262212Y0147135D01*
X0263067Y0147000D01*
X0263300Y0147000D01*
X0263300Y0152300D01*
X0263700Y0152300D01*
X0263700Y0152700D01*
X0263300Y0152700D01*
X0263300Y0158000D01*
X0263067Y0158000D01*
X0262212Y0157865D01*
X0261389Y0157597D01*
X0260617Y0157204D01*
X0259917Y0156695D01*
X0259305Y0156083D01*
X0258796Y0155383D01*
X0258728Y0155250D01*
X0258163Y0156615D01*
X0256615Y0158163D01*
X0254594Y0159000D01*
X0252406Y0159000D01*
X0250384Y0158163D01*
X0249000Y0156778D01*
X0249000Y0156946D01*
X0247946Y0158000D01*
X0239054Y0158000D01*
X0238000Y0156946D01*
X0238000Y0148054D01*
X0239054Y0147000D01*
X0247946Y0147000D01*
X0249000Y0148054D01*
X0249000Y0150222D01*
X0250384Y0148837D01*
X0250900Y0148624D01*
X0250900Y0134099D01*
X0249802Y0134099D01*
X0248747Y0133045D01*
X0248747Y0132340D01*
X0246599Y0132340D01*
X0246599Y0134698D01*
X0245545Y0135753D01*
X0238936Y0135753D01*
X0238500Y0135317D01*
X0238064Y0135753D01*
X0237458Y0135753D01*
X0237555Y0139829D01*
X0238377Y0139829D01*
X0239431Y0140883D01*
X0239431Y0146137D01*
X0238377Y0147191D01*
X0233123Y0147191D01*
X0232605Y0146673D01*
X0231415Y0147863D01*
X0229524Y0148646D01*
X0227476Y0148646D01*
X0225585Y0147863D01*
X0224137Y0146415D01*
X0223354Y0144524D01*
X0223354Y0142476D01*
X0224137Y0140585D01*
X0225585Y0139137D01*
X0227476Y0138354D01*
X0229524Y0138354D01*
X0231415Y0139137D01*
X0232360Y0140081D01*
X0232256Y0135753D01*
X0231455Y0135753D01*
X0230401Y0134698D01*
X0230401Y0127302D01*
X0231455Y0126247D01*
X0238064Y0126247D01*
X0238500Y0126683D01*
X0238936Y0126247D01*
X0245545Y0126247D01*
X0246438Y0127140D01*
X0248747Y0127140D01*
X0248747Y0126436D01*
X0249083Y0126100D01*
X0229577Y0126100D01*
X0226100Y0129577D01*
X0226100Y0136517D01*
X0225704Y0137473D01*
X0224973Y0138204D01*
X0224973Y0138204D01*
X0221100Y0142077D01*
X0221100Y0151517D01*
X0220704Y0152473D01*
X0218204Y0154973D01*
X0217473Y0155704D01*
X0216517Y0156100D01*
X0125483Y0156100D01*
X0124527Y0155704D01*
X0114527Y0145704D01*
X0113796Y0144973D01*
X0113400Y0144017D01*
X0113400Y0124531D01*
X0110877Y0121850D01*
X0106381Y0121850D01*
X0106978Y0122044D01*
X0107624Y0122373D01*
X0108209Y0122798D01*
X0108721Y0123310D01*
X0109147Y0123896D01*
X0109476Y0124541D01*
X0109699Y0125230D01*
X0109813Y0125945D01*
X0109813Y0126307D01*
X0105213Y0126307D01*
X0105213Y0126307D01*
X0109813Y0126307D01*
X0109813Y0126669D01*
X0109699Y0127384D01*
X0109476Y0128073D01*
X0109147Y0128718D01*
X0108721Y0129304D01*
X0108209Y0129816D01*
X0107624Y0130241D01*
X0106978Y0130570D01*
X0106290Y0130794D01*
X0105575Y0130907D01*
X0105213Y0130907D01*
X0105213Y0126307D01*
X0105213Y0126307D01*
X0105213Y0130907D01*
X0104851Y0130907D01*
X0104135Y0130794D01*
X0103447Y0130570D01*
X0102802Y0130241D01*
X0102216Y0129816D01*
X0101704Y0129304D01*
X0101304Y0128754D01*
X0101238Y0128913D01*
X0099944Y0130207D01*
X0098254Y0130907D01*
X0096424Y0130907D01*
X0094733Y0130207D01*
X0093439Y0128913D01*
X0093402Y0128823D01*
X0093364Y0128913D01*
X0092070Y0130207D01*
X0090380Y0130907D01*
X0088550Y0130907D01*
X0086859Y0130207D01*
X0085565Y0128913D01*
X0085528Y0128823D01*
X0085490Y0128913D01*
X0084196Y0130207D01*
X0082506Y0130907D01*
X0080676Y0130907D01*
X0078985Y0130207D01*
X0077691Y0128913D01*
X0077654Y0128823D01*
X0077616Y0128913D01*
X0076322Y0130207D01*
X0074632Y0130907D01*
X0072802Y0130907D01*
X0071111Y0130207D01*
X0069817Y0128913D01*
X0069780Y0128823D01*
X0069742Y0128913D01*
X0068448Y0130207D01*
X0066758Y0130907D01*
X0064928Y0130907D01*
X0063237Y0130207D01*
X0061943Y0128913D01*
X0061906Y0128823D01*
X0061868Y0128913D01*
X0060574Y0130207D01*
X0058884Y0130907D01*
X0057053Y0130907D01*
X0055363Y0130207D01*
X0054069Y0128913D01*
X0054031Y0128823D01*
X0053994Y0128913D01*
X0052700Y0130207D01*
X0051009Y0130907D01*
X0049179Y0130907D01*
X0047489Y0130207D01*
X0046195Y0128913D01*
X0046157Y0128823D01*
X0046120Y0128913D01*
X0044826Y0130207D01*
X0043135Y0130907D01*
X0041305Y0130907D01*
X0039615Y0130207D01*
X0038946Y0129538D01*
X0038946Y0129853D01*
X0037892Y0130907D01*
X0030801Y0130907D01*
X0029746Y0129853D01*
X0029746Y0126336D01*
X0029115Y0125850D01*
X0015778Y0125850D01*
X0015544Y0125901D01*
X0015266Y0125850D01*
X0014983Y0125850D01*
X0014762Y0125758D01*
X0014526Y0125716D01*
X0014288Y0125562D01*
X0014027Y0125454D01*
X0013858Y0125285D01*
X0013657Y0125155D01*
X0013496Y0124923D01*
X0013296Y0124723D01*
X0013204Y0124502D01*
X0011246Y0121673D01*
X0011046Y0121473D01*
X0010954Y0121252D01*
X0010818Y0121055D01*
X0010758Y0120778D01*
X0010650Y0120517D01*
X0010650Y0120278D01*
X0010599Y0120044D01*
X0010650Y0119766D01*
X0010650Y0112884D01*
X0010254Y0113048D01*
X0008246Y0113048D01*
X0006391Y0112280D01*
X0004970Y0110859D01*
X0004202Y0109004D01*
X0004202Y0106996D01*
X0004970Y0105141D01*
X0006391Y0103720D01*
X0008130Y0103000D01*
X0006391Y0102280D01*
X0004970Y0100859D01*
X0004202Y0099004D01*
X0004202Y0096996D01*
X0004970Y0095141D01*
X0006391Y0093720D01*
X0008130Y0093000D01*
X0006391Y0092280D01*
X0004970Y0090859D01*
X0004202Y0089004D01*
X0004202Y0086996D01*
X0004970Y0085141D01*
X0006391Y0083720D01*
X0008130Y0083000D01*
X0006391Y0082280D01*
X0004970Y0080859D01*
X0004202Y0079004D01*
X0004202Y0076996D01*
X0004970Y0075141D01*
X0006391Y0073720D01*
X0008130Y0073000D01*
X0006391Y0072280D01*
X0004970Y0070859D01*
X0004202Y0069004D01*
X0004202Y0066996D01*
X0004970Y0065141D01*
X0006391Y0063720D01*
X0008130Y0063000D01*
X0006391Y0062280D01*
X0004970Y0060859D01*
X0004202Y0059004D01*
X0004202Y0056996D01*
X0004970Y0055141D01*
X0006391Y0053720D01*
X0008246Y0052952D01*
X0010254Y0052952D01*
X0012109Y0053720D01*
X0013530Y0055141D01*
X0014298Y0056996D01*
X0014298Y0059004D01*
X0013530Y0060859D01*
X0012109Y0062280D01*
X0010370Y0063000D01*
X0012109Y0063720D01*
X0013530Y0065141D01*
X0014298Y0066996D01*
X0014298Y0069004D01*
X0013530Y0070859D01*
X0012109Y0072280D01*
X0010370Y0073000D01*
X0012109Y0073720D01*
X0013530Y0075141D01*
X0014298Y0076996D01*
X0014298Y0079004D01*
X0013530Y0080859D01*
X0012109Y0082280D01*
X0010370Y0083000D01*
X0012109Y0083720D01*
X0013530Y0085141D01*
X0014298Y0086996D01*
X0014298Y0089004D01*
X0013530Y0090859D01*
X0012109Y0092280D01*
X0010370Y0093000D01*
X0012109Y0093720D01*
X0013530Y0095141D01*
X0014298Y0096996D01*
X0014298Y0099004D01*
X0013530Y0100859D01*
X0012109Y0102280D01*
X0010370Y0103000D01*
X0012109Y0103720D01*
X0013530Y0105141D01*
X0014160Y0106663D01*
X0018277Y0102546D01*
X0019233Y0102150D01*
X0038512Y0102150D01*
X0038512Y0087443D01*
X0038908Y0086488D01*
X0039639Y0085756D01*
X0046885Y0078511D01*
X0046885Y0076296D01*
X0047939Y0075241D01*
X0052580Y0075241D01*
X0053635Y0076296D01*
X0053635Y0081330D01*
X0052580Y0082385D01*
X0050365Y0082385D01*
X0043712Y0089038D01*
X0043712Y0103683D01*
X0048016Y0108047D01*
X0048246Y0107952D01*
X0050254Y0107952D01*
X0052109Y0108720D01*
X0053530Y0110141D01*
X0054250Y0111880D01*
X0054970Y0110141D01*
X0056391Y0108720D01*
X0056648Y0108614D01*
X0056648Y0107471D01*
X0055254Y0108048D01*
X0053246Y0108048D01*
X0051391Y0107280D01*
X0049970Y0105859D01*
X0049202Y0104004D01*
X0049202Y0101996D01*
X0049970Y0100141D01*
X0051391Y0098720D01*
X0053246Y0097952D01*
X0055254Y0097952D01*
X0056644Y0098528D01*
X0056644Y0098024D01*
X0056644Y0098023D01*
X0056644Y0097507D01*
X0056644Y0096990D01*
X0056644Y0096989D01*
X0056644Y0096989D01*
X0056840Y0096516D01*
X0057039Y0096034D01*
X0057040Y0096034D01*
X0057040Y0096033D01*
X0057397Y0095677D01*
X0057770Y0095302D01*
X0057771Y0095302D01*
X0062150Y0090923D01*
X0062150Y0083327D01*
X0060634Y0081811D01*
X0060061Y0082385D01*
X0055420Y0082385D01*
X0054365Y0081330D01*
X0054365Y0076296D01*
X0055420Y0075241D01*
X0060061Y0075241D01*
X0061032Y0076213D01*
X0061830Y0076213D01*
X0062786Y0076609D01*
X0066223Y0080046D01*
X0066954Y0080777D01*
X0067350Y0081733D01*
X0067350Y0092517D01*
X0066954Y0093473D01*
X0061930Y0098497D01*
X0063246Y0097952D01*
X0065254Y0097952D01*
X0067109Y0098720D01*
X0068530Y0100141D01*
X0069298Y0101996D01*
X0069298Y0104004D01*
X0068530Y0105859D01*
X0067109Y0107280D01*
X0065254Y0108048D01*
X0063246Y0108048D01*
X0061848Y0107469D01*
X0061848Y0108612D01*
X0062109Y0108720D01*
X0063530Y0110141D01*
X0064250Y0111880D01*
X0064970Y0110141D01*
X0066391Y0108720D01*
X0068246Y0107952D01*
X0070254Y0107952D01*
X0072109Y0108720D01*
X0073530Y0110141D01*
X0074250Y0111880D01*
X0074970Y0110141D01*
X0076391Y0108720D01*
X0078246Y0107952D01*
X0080254Y0107952D01*
X0081900Y0108634D01*
X0081900Y0087983D01*
X0082296Y0087027D01*
X0106650Y0062673D01*
X0106650Y0057387D01*
X0106391Y0057280D01*
X0104970Y0055859D01*
X0104250Y0054120D01*
X0103530Y0055859D01*
X0102109Y0057280D01*
X0100254Y0058048D01*
X0098246Y0058048D01*
X0096391Y0057280D01*
X0094970Y0055859D01*
X0094250Y0054120D01*
X0093530Y0055859D01*
X0092109Y0057280D01*
X0090254Y0058048D01*
X0088246Y0058048D01*
X0086391Y0057280D01*
X0084970Y0055859D01*
X0084250Y0054120D01*
X0083530Y0055859D01*
X0082109Y0057280D01*
X0080254Y0058048D01*
X0078246Y0058048D01*
X0076391Y0057280D01*
X0074970Y0055859D01*
X0074250Y0054120D01*
X0073530Y0055859D01*
X0072109Y0057280D01*
X0070254Y0058048D01*
X0068246Y0058048D01*
X0066391Y0057280D01*
X0064970Y0055859D01*
X0064250Y0054120D01*
X0063530Y0055859D01*
X0062109Y0057280D01*
X0060254Y0058048D01*
X0058246Y0058048D01*
X0056391Y0057280D01*
X0054970Y0055859D01*
X0054202Y0054004D01*
X0054202Y0054004D01*
X0054174Y0054182D01*
X0053928Y0054938D01*
X0053567Y0055646D01*
X0053100Y0056289D01*
X0052539Y0056850D01*
X0051896Y0057317D01*
X0051188Y0057678D01*
X0050432Y0057924D01*
X0049647Y0058048D01*
X0049533Y0058048D01*
X0049533Y0053283D01*
X0048967Y0053283D01*
X0048967Y0058048D01*
X0048853Y0058048D01*
X0048068Y0057924D01*
X0047312Y0057678D01*
X0046604Y0057317D01*
X0045961Y0056850D01*
X0045400Y0056289D01*
X0044933Y0055646D01*
X0044572Y0054938D01*
X0044326Y0054182D01*
X0044298Y0054004D01*
X0043530Y0055859D01*
X0042109Y0057280D01*
X0040254Y0058048D01*
X0038246Y0058048D01*
X0036391Y0057280D01*
X0034970Y0055859D01*
X0034250Y0054120D01*
X0033530Y0055859D01*
X0032109Y0057280D01*
X0030254Y0058048D01*
X0028246Y0058048D01*
X0026391Y0057280D01*
X0024970Y0055859D01*
X0024250Y0054120D01*
X0023530Y0055859D01*
X0022109Y0057280D01*
X0020254Y0058048D01*
X0018246Y0058048D01*
X0016391Y0057280D01*
X0014970Y0055859D01*
X0014202Y0054004D01*
X0014202Y0051996D01*
X0014970Y0050141D01*
X0016391Y0048720D01*
X0018246Y0047952D01*
X0020254Y0047952D01*
X0022109Y0048720D01*
X0023530Y0050141D01*
X0024250Y0051880D01*
X0024970Y0050141D01*
X0026391Y0048720D01*
X0028246Y0047952D01*
X0030254Y0047952D01*
X0032109Y0048720D01*
X0033530Y0050141D01*
X0034250Y0051880D01*
X0034970Y0050141D01*
X0036391Y0048720D01*
X0038246Y0047952D01*
X0040254Y0047952D01*
X0042109Y0048720D01*
X0043530Y0050141D01*
X0044298Y0051996D01*
X0044298Y0051996D01*
X0044326Y0051818D01*
X0044572Y0051062D01*
X0044933Y0050354D01*
X0045400Y0049711D01*
X0045961Y0049150D01*
X0046604Y0048683D01*
X0047312Y0048322D01*
X0048068Y0048076D01*
X0048853Y0047952D01*
X0048967Y0047952D01*
X0048967Y0052717D01*
X0049533Y0052717D01*
X0049533Y0047952D01*
X0049647Y0047952D01*
X0050432Y0048076D01*
X0051188Y0048322D01*
X0051896Y0048683D01*
X0052539Y0049150D01*
X0053100Y0049711D01*
X0053567Y0050354D01*
X0053928Y0051062D01*
X0054174Y0051818D01*
X0054202Y0051996D01*
X0054970Y0050141D01*
X0056391Y0048720D01*
X0058246Y0047952D01*
X0060254Y0047952D01*
X0062109Y0048720D01*
X0063530Y0050141D01*
X0064250Y0051880D01*
X0064970Y0050141D01*
X0066391Y0048720D01*
X0068246Y0047952D01*
X0070254Y0047952D01*
X0072109Y0048720D01*
X0073530Y0050141D01*
X0074250Y0051880D01*
X0074970Y0050141D01*
X0076391Y0048720D01*
X0078246Y0047952D01*
X0080254Y0047952D01*
X0082109Y0048720D01*
X0083530Y0050141D01*
X0084250Y0051880D01*
X0084970Y0050141D01*
X0086391Y0048720D01*
X0088246Y0047952D01*
X0090254Y0047952D01*
X0092109Y0048720D01*
X0093530Y0050141D01*
X0094250Y0051880D01*
X0094970Y0050141D01*
X0096391Y0048720D01*
X0098246Y0047952D01*
X0100254Y0047952D01*
X0102109Y0048720D01*
X0103530Y0050141D01*
X0104250Y0051880D01*
X0104970Y0050141D01*
X0106391Y0048720D01*
X0108246Y0047952D01*
X0110254Y0047952D01*
X0112109Y0048720D01*
X0113530Y0050141D01*
X0114250Y0051880D01*
X0114970Y0050141D01*
X0116391Y0048720D01*
X0118246Y0047952D01*
X0120254Y0047952D01*
X0122109Y0048720D01*
X0123530Y0050141D01*
X0124250Y0051880D01*
X0124970Y0050141D01*
X0126391Y0048720D01*
X0128246Y0047952D01*
X0130254Y0047952D01*
X0132109Y0048720D01*
X0133530Y0050141D01*
X0134298Y0051996D01*
X0134298Y0054004D01*
X0133530Y0055859D01*
X0132109Y0057280D01*
X0130254Y0058048D01*
X0128246Y0058048D01*
X0127863Y0057889D01*
X0136684Y0066650D01*
X0142173Y0066650D01*
X0163767Y0045056D01*
X0165240Y0047260D02*
X0143250Y0069250D01*
X0135612Y0069250D01*
X0119250Y0053000D01*
X0123701Y0050554D02*
X0124799Y0050554D01*
X0126156Y0048955D02*
X0122344Y0048955D01*
X0116156Y0048955D02*
X0112344Y0048955D01*
X0113701Y0050554D02*
X0114799Y0050554D01*
X0114250Y0054120D02*
X0113530Y0055859D01*
X0112109Y0057280D01*
X0111850Y0057387D01*
X0111850Y0064267D01*
X0111454Y0065223D01*
X0110723Y0065954D01*
X0087100Y0089577D01*
X0087100Y0108427D01*
X0088246Y0107952D01*
X0090254Y0107952D01*
X0092109Y0108720D01*
X0093530Y0110141D01*
X0094250Y0111880D01*
X0094970Y0110141D01*
X0096391Y0108720D01*
X0098246Y0107952D01*
X0100254Y0107952D01*
X0102109Y0108720D01*
X0103530Y0110141D01*
X0104250Y0111880D01*
X0104970Y0110141D01*
X0106391Y0108720D01*
X0108246Y0107952D01*
X0110254Y0107952D01*
X0112109Y0108720D01*
X0113530Y0110141D01*
X0114250Y0111880D01*
X0114970Y0110141D01*
X0116391Y0108720D01*
X0118246Y0107952D01*
X0120254Y0107952D01*
X0122109Y0108720D01*
X0123530Y0110141D01*
X0124250Y0111880D01*
X0124970Y0110141D01*
X0126150Y0108961D01*
X0126150Y0103233D01*
X0126546Y0102277D01*
X0137150Y0091673D01*
X0137150Y0088253D01*
X0136455Y0088253D01*
X0135401Y0087198D01*
X0135401Y0079802D01*
X0136455Y0078747D01*
X0143064Y0078747D01*
X0143500Y0079183D01*
X0143936Y0078747D01*
X0150545Y0078747D01*
X0151599Y0079802D01*
X0151599Y0080900D01*
X0152113Y0080900D01*
X0152113Y0079526D01*
X0153168Y0078472D01*
X0153465Y0078472D01*
X0153219Y0078406D01*
X0152808Y0078169D01*
X0152473Y0077834D01*
X0152236Y0077423D01*
X0152113Y0076965D01*
X0152113Y0074944D01*
X0156485Y0074944D01*
X0156485Y0074576D01*
X0152113Y0074576D01*
X0152113Y0072554D01*
X0152236Y0072097D01*
X0152473Y0071686D01*
X0152808Y0071351D01*
X0153219Y0071114D01*
X0153676Y0070991D01*
X0156485Y0070991D01*
X0156485Y0074576D01*
X0156854Y0074576D01*
X0156854Y0074944D01*
X0161225Y0074944D01*
X0161225Y0075336D01*
X0161829Y0074731D01*
X0168832Y0074731D01*
X0169887Y0075786D01*
X0169887Y0075900D01*
X0176517Y0075900D01*
X0177473Y0076296D01*
X0178204Y0077027D01*
X0178566Y0077901D01*
X0179698Y0077901D01*
X0180753Y0078955D01*
X0180753Y0085564D01*
X0180317Y0086000D01*
X0180753Y0086436D01*
X0180753Y0093045D01*
X0179860Y0093938D01*
X0179860Y0096247D01*
X0180564Y0096247D01*
X0181000Y0096683D01*
X0181436Y0096247D01*
X0188045Y0096247D01*
X0189099Y0097302D01*
X0189099Y0104698D01*
X0188045Y0105753D01*
X0187340Y0105753D01*
X0187340Y0107113D01*
X0187454Y0107113D01*
X0188509Y0108168D01*
X0188509Y0109069D01*
X0190994Y0109069D01*
X0191747Y0108316D01*
X0191747Y0103936D01*
X0192183Y0103500D01*
X0191747Y0103064D01*
X0191747Y0096455D01*
X0192802Y0095401D01*
X0193900Y0095401D01*
X0193900Y0081582D01*
X0192004Y0081582D01*
X0190404Y0079982D01*
X0185534Y0079982D01*
X0184578Y0079586D01*
X0183847Y0078855D01*
X0181879Y0076887D01*
X0178286Y0076887D01*
X0177231Y0075832D01*
X0177231Y0068829D01*
X0177836Y0068225D01*
X0174546Y0068225D01*
X0173491Y0067171D01*
X0173491Y0060168D01*
X0174546Y0059113D01*
X0174660Y0059113D01*
X0174660Y0059099D01*
X0174302Y0059099D01*
X0173247Y0058045D01*
X0173247Y0051436D01*
X0173683Y0051000D01*
X0173247Y0050564D01*
X0173247Y0049860D01*
X0166317Y0049860D01*
X0145454Y0070723D01*
X0144723Y0071454D01*
X0143767Y0071850D01*
X0135616Y0071850D01*
X0135104Y0071852D01*
X0135100Y0071850D01*
X0135095Y0071850D01*
X0134621Y0071654D01*
X0134147Y0071459D01*
X0134144Y0071456D01*
X0134139Y0071454D01*
X0133777Y0071092D01*
X0120529Y0057934D01*
X0120254Y0058048D01*
X0118246Y0058048D01*
X0116391Y0057280D01*
X0114970Y0055859D01*
X0114250Y0054120D01*
X0113741Y0055349D02*
X0114759Y0055349D01*
X0116059Y0056948D02*
X0112441Y0056948D01*
X0111850Y0058546D02*
X0121145Y0058546D01*
X0122755Y0060145D02*
X0111850Y0060145D01*
X0111850Y0061743D02*
X0124364Y0061743D01*
X0125974Y0063342D02*
X0111850Y0063342D01*
X0111571Y0064940D02*
X0127583Y0064940D01*
X0129193Y0066539D02*
X0110138Y0066539D01*
X0108539Y0068137D02*
X0130802Y0068137D01*
X0132412Y0069736D02*
X0106941Y0069736D01*
X0105342Y0071334D02*
X0134020Y0071334D01*
X0136572Y0066539D02*
X0142284Y0066539D01*
X0143883Y0064940D02*
X0134963Y0064940D01*
X0133353Y0063342D02*
X0145481Y0063342D01*
X0147080Y0061743D02*
X0131743Y0061743D01*
X0130134Y0060145D02*
X0148678Y0060145D01*
X0150277Y0058546D02*
X0128524Y0058546D01*
X0132441Y0056948D02*
X0151875Y0056948D01*
X0153474Y0055349D02*
X0133741Y0055349D01*
X0134298Y0053751D02*
X0155072Y0053751D01*
X0156671Y0052152D02*
X0134298Y0052152D01*
X0133701Y0050554D02*
X0158269Y0050554D01*
X0159868Y0048955D02*
X0132344Y0048955D01*
X0109813Y0039364D02*
X0172567Y0039364D01*
X0176760Y0035500D02*
X0160750Y0035500D01*
X0159750Y0034500D01*
X0156069Y0036167D02*
X0108192Y0036167D01*
X0109393Y0037766D02*
X0156708Y0037766D01*
X0156570Y0031372D02*
X0034128Y0031372D01*
X0035727Y0029773D02*
X0174400Y0029773D01*
X0172831Y0031372D02*
X0162930Y0031372D01*
X0176760Y0035500D02*
X0177000Y0035260D01*
X0177000Y0025240D01*
X0181753Y0024978D02*
X0280900Y0024978D01*
X0280900Y0026576D02*
X0181753Y0026576D01*
X0181753Y0028175D02*
X0280900Y0028175D01*
X0280900Y0029773D02*
X0179600Y0029773D01*
X0183761Y0031372D02*
X0184720Y0031372D01*
X0184720Y0032970D02*
X0183761Y0032970D01*
X0183761Y0034569D02*
X0184720Y0034569D01*
X0184720Y0035980D02*
X0188599Y0035980D01*
X0188599Y0038690D01*
X0188477Y0039148D01*
X0188240Y0039558D01*
X0187904Y0039893D01*
X0187494Y0040130D01*
X0187036Y0040253D01*
X0184720Y0040253D01*
X0184720Y0035980D01*
X0184720Y0036167D02*
X0183761Y0036167D01*
X0183761Y0037766D02*
X0184720Y0037766D01*
X0184720Y0039364D02*
X0183761Y0039364D01*
X0188351Y0039364D02*
X0280900Y0039364D01*
X0280900Y0037766D02*
X0188599Y0037766D01*
X0188599Y0036167D02*
X0280900Y0036167D01*
X0280900Y0034569D02*
X0188599Y0034569D01*
X0188599Y0032970D02*
X0280900Y0032970D01*
X0280900Y0031372D02*
X0188169Y0031372D01*
X0181753Y0023379D02*
X0280900Y0023379D01*
X0280900Y0021781D02*
X0273292Y0021781D01*
X0273292Y0020182D02*
X0280900Y0020182D01*
X0279907Y0018584D02*
X0273292Y0018584D01*
X0273292Y0016985D02*
X0278308Y0016985D01*
X0276710Y0015387D02*
X0273292Y0015387D01*
X0273192Y0013788D02*
X0275111Y0013788D01*
X0273513Y0012190D02*
X0258367Y0012190D01*
X0256768Y0010591D02*
X0271914Y0010591D01*
X0270316Y0008993D02*
X0255170Y0008993D01*
X0253500Y0011000D02*
X0258244Y0015744D01*
X0258244Y0017882D01*
X0263192Y0013788D02*
X0263296Y0013788D01*
X0253500Y0011000D02*
X0233500Y0011000D01*
X0226500Y0018000D01*
X0221354Y0018584D02*
X0201646Y0018584D01*
X0201646Y0016985D02*
X0221354Y0016985D01*
X0222012Y0015387D02*
X0202790Y0015387D01*
X0204389Y0013788D02*
X0223434Y0013788D01*
X0228633Y0012190D02*
X0205987Y0012190D01*
X0207586Y0010591D02*
X0230232Y0010591D01*
X0231830Y0008993D02*
X0209184Y0008993D01*
X0208500Y0006000D02*
X0271000Y0006000D01*
X0283500Y0018500D01*
X0283500Y0073500D01*
X0299000Y0089000D01*
X0299000Y0095000D01*
X0313000Y0109000D01*
X0318675Y0111297D02*
X0362500Y0111297D01*
X0362500Y0109699D02*
X0319337Y0109699D01*
X0319405Y0108100D02*
X0362500Y0108100D01*
X0362500Y0106502D02*
X0319405Y0106502D01*
X0318758Y0104903D02*
X0362500Y0104903D01*
X0362500Y0103305D02*
X0317902Y0103305D01*
X0316303Y0101706D02*
X0362500Y0101706D01*
X0362500Y0100108D02*
X0307785Y0100108D01*
X0306186Y0098509D02*
X0362500Y0098509D01*
X0362500Y0096911D02*
X0326348Y0096911D01*
X0325033Y0097455D02*
X0327865Y0096282D01*
X0330032Y0094115D01*
X0331205Y0091283D01*
X0331205Y0088217D01*
X0330032Y0085385D01*
X0327865Y0083218D01*
X0327270Y0082971D01*
X0327790Y0082671D01*
X0328591Y0082056D01*
X0329306Y0081341D01*
X0329921Y0080540D01*
X0330426Y0079665D01*
X0330812Y0078732D01*
X0331074Y0077756D01*
X0331167Y0077050D01*
X0324300Y0077050D01*
X0324300Y0075450D01*
X0331167Y0075450D01*
X0331074Y0074743D01*
X0330812Y0073768D01*
X0330426Y0072835D01*
X0329921Y0071960D01*
X0329306Y0071159D01*
X0328591Y0070444D01*
X0327790Y0069829D01*
X0326915Y0069324D01*
X0325982Y0068938D01*
X0325006Y0068676D01*
X0324300Y0068583D01*
X0324300Y0075450D01*
X0322700Y0075450D01*
X0315833Y0075450D01*
X0315926Y0074743D01*
X0316188Y0073768D01*
X0316574Y0072835D01*
X0317079Y0071960D01*
X0317694Y0071159D01*
X0318409Y0070444D01*
X0319210Y0069829D01*
X0320085Y0069324D01*
X0321018Y0068938D01*
X0321993Y0068676D01*
X0322700Y0068583D01*
X0322700Y0075450D01*
X0322700Y0077050D01*
X0315833Y0077050D01*
X0315926Y0077756D01*
X0316188Y0078732D01*
X0316574Y0079665D01*
X0317079Y0080540D01*
X0317694Y0081341D01*
X0318409Y0082056D01*
X0319210Y0082671D01*
X0319730Y0082971D01*
X0319135Y0083218D01*
X0316968Y0085385D01*
X0315794Y0088217D01*
X0315794Y0091283D01*
X0316968Y0094115D01*
X0319135Y0096282D01*
X0321967Y0097455D01*
X0325033Y0097455D01*
X0328835Y0095312D02*
X0362500Y0095312D01*
X0362500Y0093714D02*
X0330199Y0093714D01*
X0330861Y0092115D02*
X0362500Y0092115D01*
X0362500Y0090517D02*
X0331205Y0090517D01*
X0331205Y0088918D02*
X0362500Y0088918D01*
X0362500Y0087320D02*
X0330834Y0087320D01*
X0330172Y0085721D02*
X0362500Y0085721D01*
X0362500Y0084123D02*
X0328770Y0084123D01*
X0327981Y0082524D02*
X0362500Y0082524D01*
X0362500Y0080926D02*
X0329625Y0080926D01*
X0330566Y0079327D02*
X0362500Y0079327D01*
X0362500Y0077729D02*
X0331077Y0077729D01*
X0331017Y0074532D02*
X0362500Y0074532D01*
X0362500Y0076130D02*
X0324300Y0076130D01*
X0324300Y0074532D02*
X0322700Y0074532D01*
X0322700Y0076130D02*
X0289807Y0076130D01*
X0288208Y0074532D02*
X0315983Y0074532D01*
X0316534Y0072933D02*
X0286610Y0072933D01*
X0286100Y0071334D02*
X0317559Y0071334D01*
X0319372Y0069736D02*
X0286100Y0069736D01*
X0286100Y0068137D02*
X0362500Y0068137D01*
X0362500Y0066539D02*
X0286100Y0066539D01*
X0286100Y0064940D02*
X0308320Y0064940D01*
X0308285Y0064926D02*
X0307410Y0064421D01*
X0306609Y0063806D01*
X0305894Y0063091D01*
X0305279Y0062290D01*
X0304774Y0061415D01*
X0304388Y0060482D01*
X0304126Y0059506D01*
X0304033Y0058800D01*
X0310900Y0058800D01*
X0310900Y0065667D01*
X0310193Y0065574D01*
X0309218Y0065312D01*
X0308285Y0064926D01*
X0310900Y0064940D02*
X0312500Y0064940D01*
X0312500Y0065667D02*
X0312500Y0058800D01*
X0310900Y0058800D01*
X0310900Y0057200D01*
X0304033Y0057200D01*
X0304126Y0056493D01*
X0304388Y0055518D01*
X0304774Y0054585D01*
X0305279Y0053710D01*
X0305894Y0052909D01*
X0306609Y0052194D01*
X0307410Y0051579D01*
X0308285Y0051074D01*
X0309218Y0050688D01*
X0310193Y0050426D01*
X0310900Y0050333D01*
X0310900Y0057200D01*
X0312500Y0057200D01*
X0312500Y0058800D01*
X0319367Y0058800D01*
X0319274Y0059506D01*
X0319012Y0060482D01*
X0318626Y0061415D01*
X0318121Y0062290D01*
X0317506Y0063091D01*
X0316791Y0063806D01*
X0315990Y0064421D01*
X0315115Y0064926D01*
X0314182Y0065312D01*
X0313206Y0065574D01*
X0312500Y0065667D01*
X0312500Y0063342D02*
X0310900Y0063342D01*
X0310900Y0061743D02*
X0312500Y0061743D01*
X0312500Y0060145D02*
X0310900Y0060145D01*
X0310900Y0058546D02*
X0286100Y0058546D01*
X0286100Y0056948D02*
X0304066Y0056948D01*
X0304458Y0055349D02*
X0286100Y0055349D01*
X0286100Y0053751D02*
X0305256Y0053751D01*
X0306663Y0052152D02*
X0286100Y0052152D01*
X0286100Y0050554D02*
X0309718Y0050554D01*
X0310900Y0050554D02*
X0312500Y0050554D01*
X0312500Y0050333D02*
X0313206Y0050426D01*
X0314182Y0050688D01*
X0315115Y0051074D01*
X0315990Y0051579D01*
X0316791Y0052194D01*
X0317506Y0052909D01*
X0318121Y0053710D01*
X0318626Y0054585D01*
X0319012Y0055518D01*
X0319274Y0056493D01*
X0319367Y0057200D01*
X0312500Y0057200D01*
X0312500Y0050333D01*
X0313682Y0050554D02*
X0362500Y0050554D01*
X0362500Y0052152D02*
X0316737Y0052152D01*
X0318144Y0053751D02*
X0362500Y0053751D01*
X0362500Y0055349D02*
X0318942Y0055349D01*
X0319333Y0056948D02*
X0362500Y0056948D01*
X0362500Y0058546D02*
X0312500Y0058546D01*
X0312500Y0056948D02*
X0310900Y0056948D01*
X0310900Y0055349D02*
X0312500Y0055349D01*
X0312500Y0053751D02*
X0310900Y0053751D01*
X0310900Y0052152D02*
X0312500Y0052152D01*
X0319210Y0046171D02*
X0320085Y0046676D01*
X0321018Y0047062D01*
X0321993Y0047324D01*
X0322700Y0047417D01*
X0322700Y0040550D01*
X0324300Y0040550D01*
X0324300Y0047417D01*
X0325006Y0047324D01*
X0325982Y0047062D01*
X0326915Y0046676D01*
X0327790Y0046171D01*
X0328591Y0045556D01*
X0329306Y0044841D01*
X0329921Y0044040D01*
X0330426Y0043165D01*
X0330812Y0042232D01*
X0331074Y0041256D01*
X0331167Y0040550D01*
X0324300Y0040550D01*
X0324300Y0038950D01*
X0331167Y0038950D01*
X0331074Y0038243D01*
X0330812Y0037268D01*
X0330426Y0036335D01*
X0329921Y0035460D01*
X0329306Y0034659D01*
X0328591Y0033944D01*
X0327790Y0033329D01*
X0326915Y0032824D01*
X0325982Y0032438D01*
X0325006Y0032176D01*
X0324300Y0032083D01*
X0324300Y0038950D01*
X0322700Y0038950D01*
X0315833Y0038950D01*
X0315926Y0038243D01*
X0316188Y0037268D01*
X0316574Y0036335D01*
X0317079Y0035460D01*
X0317694Y0034659D01*
X0318409Y0033944D01*
X0319210Y0033329D01*
X0320085Y0032824D01*
X0321018Y0032438D01*
X0321993Y0032176D01*
X0322700Y0032083D01*
X0322700Y0038950D01*
X0322700Y0040550D01*
X0315833Y0040550D01*
X0315926Y0041256D01*
X0316188Y0042232D01*
X0316574Y0043165D01*
X0317079Y0044040D01*
X0317694Y0044841D01*
X0318409Y0045556D01*
X0319210Y0046171D01*
X0318673Y0045758D02*
X0286100Y0045758D01*
X0286100Y0044160D02*
X0317171Y0044160D01*
X0316324Y0042561D02*
X0286100Y0042561D01*
X0286100Y0040963D02*
X0315888Y0040963D01*
X0316054Y0037766D02*
X0286100Y0037766D01*
X0286100Y0039364D02*
X0322700Y0039364D01*
X0322700Y0037766D02*
X0324300Y0037766D01*
X0324300Y0039364D02*
X0362500Y0039364D01*
X0362500Y0037766D02*
X0330946Y0037766D01*
X0330329Y0036167D02*
X0336826Y0036167D01*
X0335316Y0034569D02*
X0329216Y0034569D01*
X0327168Y0032970D02*
X0333718Y0032970D01*
X0332119Y0031372D02*
X0286100Y0031372D01*
X0286100Y0032970D02*
X0319832Y0032970D01*
X0317784Y0034569D02*
X0286100Y0034569D01*
X0286100Y0036167D02*
X0316671Y0036167D01*
X0322700Y0036167D02*
X0324300Y0036167D01*
X0324300Y0034569D02*
X0322700Y0034569D01*
X0322700Y0032970D02*
X0324300Y0032970D01*
X0330521Y0029773D02*
X0286100Y0029773D01*
X0286100Y0028175D02*
X0304058Y0028175D01*
X0303129Y0027790D02*
X0300710Y0025371D01*
X0299401Y0022210D01*
X0299401Y0018790D01*
X0300710Y0015629D01*
X0303129Y0013210D01*
X0306290Y0011901D01*
X0309710Y0011901D01*
X0312871Y0013210D01*
X0315290Y0015629D01*
X0316599Y0018790D01*
X0316599Y0022210D01*
X0315290Y0025371D01*
X0312871Y0027790D01*
X0309710Y0029099D01*
X0306290Y0029099D01*
X0303129Y0027790D01*
X0301915Y0026576D02*
X0286100Y0026576D01*
X0286100Y0024978D02*
X0300547Y0024978D01*
X0299885Y0023379D02*
X0286100Y0023379D01*
X0286100Y0021781D02*
X0299401Y0021781D01*
X0299401Y0020182D02*
X0286100Y0020182D01*
X0286100Y0018584D02*
X0299486Y0018584D01*
X0300148Y0016985D02*
X0285662Y0016985D01*
X0284064Y0015387D02*
X0300952Y0015387D01*
X0302551Y0013788D02*
X0282465Y0013788D01*
X0280867Y0012190D02*
X0305592Y0012190D01*
X0310408Y0012190D02*
X0328700Y0012190D01*
X0328700Y0013788D02*
X0313449Y0013788D01*
X0315048Y0015387D02*
X0328700Y0015387D01*
X0328700Y0016985D02*
X0315852Y0016985D01*
X0316514Y0018584D02*
X0328700Y0018584D01*
X0328700Y0020182D02*
X0316599Y0020182D01*
X0316599Y0021781D02*
X0328700Y0021781D01*
X0328700Y0023379D02*
X0316115Y0023379D01*
X0315453Y0024978D02*
X0328700Y0024978D01*
X0328700Y0026576D02*
X0314085Y0026576D01*
X0311942Y0028175D02*
X0328922Y0028175D01*
X0331112Y0040963D02*
X0362500Y0040963D01*
X0362500Y0042561D02*
X0330676Y0042561D01*
X0329829Y0044160D02*
X0362500Y0044160D01*
X0362500Y0045758D02*
X0328327Y0045758D01*
X0324755Y0047357D02*
X0362500Y0047357D01*
X0362500Y0048955D02*
X0286100Y0048955D01*
X0286100Y0047357D02*
X0322245Y0047357D01*
X0322700Y0047357D02*
X0324300Y0047357D01*
X0324300Y0045758D02*
X0322700Y0045758D01*
X0322700Y0044160D02*
X0324300Y0044160D01*
X0324300Y0042561D02*
X0322700Y0042561D01*
X0322700Y0040963D02*
X0324300Y0040963D01*
X0319103Y0060145D02*
X0362500Y0060145D01*
X0362500Y0061743D02*
X0318436Y0061743D01*
X0317255Y0063342D02*
X0362500Y0063342D01*
X0362500Y0064940D02*
X0315080Y0064940D01*
X0322700Y0069736D02*
X0324300Y0069736D01*
X0324300Y0071334D02*
X0322700Y0071334D01*
X0322700Y0072933D02*
X0324300Y0072933D01*
X0327628Y0069736D02*
X0362500Y0069736D01*
X0362500Y0071334D02*
X0329441Y0071334D01*
X0330466Y0072933D02*
X0362500Y0072933D01*
X0319019Y0082524D02*
X0296201Y0082524D01*
X0294603Y0080926D02*
X0317375Y0080926D01*
X0316434Y0079327D02*
X0293004Y0079327D01*
X0291405Y0077729D02*
X0315923Y0077729D01*
X0318230Y0084123D02*
X0297800Y0084123D01*
X0299398Y0085721D02*
X0316828Y0085721D01*
X0316166Y0087320D02*
X0300997Y0087320D01*
X0301600Y0088918D02*
X0315794Y0088918D01*
X0315794Y0090517D02*
X0301600Y0090517D01*
X0301600Y0092115D02*
X0316139Y0092115D01*
X0316801Y0093714D02*
X0301600Y0093714D01*
X0302989Y0095312D02*
X0318165Y0095312D01*
X0320652Y0096911D02*
X0304588Y0096911D01*
X0300431Y0100108D02*
X0221785Y0100108D01*
X0223383Y0101706D02*
X0302029Y0101706D01*
X0303628Y0103305D02*
X0224982Y0103305D01*
X0225600Y0104903D02*
X0304642Y0104903D01*
X0303994Y0106502D02*
X0225600Y0106502D01*
X0225600Y0108100D02*
X0303994Y0108100D01*
X0304063Y0109699D02*
X0225600Y0109699D01*
X0225600Y0111297D02*
X0304725Y0111297D01*
X0305699Y0112896D02*
X0225600Y0112896D01*
X0225600Y0114494D02*
X0307297Y0114494D01*
X0316103Y0114494D02*
X0362500Y0114494D01*
X0362500Y0112896D02*
X0317701Y0112896D01*
X0320168Y0119290D02*
X0270753Y0119290D01*
X0270753Y0120888D02*
X0317964Y0120888D01*
X0316968Y0121885D02*
X0319135Y0119718D01*
X0321967Y0118544D01*
X0325033Y0118544D01*
X0327865Y0119718D01*
X0330032Y0121885D01*
X0331205Y0124717D01*
X0331205Y0127783D01*
X0330032Y0130615D01*
X0327865Y0132782D01*
X0325033Y0133955D01*
X0321967Y0133955D01*
X0319135Y0132782D01*
X0316968Y0130615D01*
X0315794Y0127783D01*
X0315794Y0124717D01*
X0316968Y0121885D01*
X0316718Y0122487D02*
X0270753Y0122487D01*
X0270753Y0124085D02*
X0316056Y0124085D01*
X0315794Y0125684D02*
X0270633Y0125684D01*
X0270753Y0127282D02*
X0315794Y0127282D01*
X0316249Y0128881D02*
X0270753Y0128881D01*
X0270753Y0130479D02*
X0316912Y0130479D01*
X0318431Y0132078D02*
X0270753Y0132078D01*
X0270121Y0133676D02*
X0321294Y0133676D01*
X0325706Y0133676D02*
X0333071Y0133676D01*
X0334669Y0132078D02*
X0328569Y0132078D01*
X0330088Y0130479D02*
X0336268Y0130479D01*
X0337866Y0128881D02*
X0330751Y0128881D01*
X0331205Y0127282D02*
X0362500Y0127282D01*
X0362500Y0125684D02*
X0331205Y0125684D01*
X0330944Y0124085D02*
X0362500Y0124085D01*
X0362500Y0122487D02*
X0330282Y0122487D01*
X0329036Y0120888D02*
X0362500Y0120888D01*
X0362500Y0119290D02*
X0326832Y0119290D01*
X0331472Y0135275D02*
X0256100Y0135275D01*
X0256100Y0136873D02*
X0329874Y0136873D01*
X0328700Y0138472D02*
X0313133Y0138472D01*
X0312871Y0138210D02*
X0315290Y0140629D01*
X0316599Y0143790D01*
X0316599Y0147210D01*
X0315290Y0150371D01*
X0312871Y0152790D01*
X0309710Y0154099D01*
X0306290Y0154099D01*
X0303129Y0152790D01*
X0300710Y0150371D01*
X0299401Y0147210D01*
X0299401Y0143790D01*
X0300710Y0140629D01*
X0303129Y0138210D01*
X0306290Y0136901D01*
X0309710Y0136901D01*
X0312871Y0138210D01*
X0314732Y0140070D02*
X0328700Y0140070D01*
X0328700Y0141669D02*
X0315721Y0141669D01*
X0316383Y0143268D02*
X0328700Y0143268D01*
X0328700Y0144866D02*
X0316599Y0144866D01*
X0316599Y0146465D02*
X0328700Y0146465D01*
X0328700Y0148063D02*
X0316246Y0148063D01*
X0315584Y0149662D02*
X0328700Y0149662D01*
X0328700Y0151260D02*
X0314401Y0151260D01*
X0312706Y0152859D02*
X0328700Y0152859D01*
X0328700Y0154457D02*
X0268647Y0154457D01*
X0268597Y0154611D02*
X0268204Y0155383D01*
X0267695Y0156083D01*
X0267083Y0156695D01*
X0266383Y0157204D01*
X0265611Y0157597D01*
X0264788Y0157865D01*
X0263933Y0158000D01*
X0263700Y0158000D01*
X0263700Y0152700D01*
X0269000Y0152700D01*
X0269000Y0152933D01*
X0268865Y0153788D01*
X0268597Y0154611D01*
X0267715Y0156056D02*
X0328700Y0156056D01*
X0328700Y0157654D02*
X0265436Y0157654D01*
X0263700Y0157654D02*
X0263300Y0157654D01*
X0263300Y0156056D02*
X0263700Y0156056D01*
X0263700Y0154457D02*
X0263300Y0154457D01*
X0263300Y0152859D02*
X0263700Y0152859D01*
X0263700Y0152300D02*
X0269000Y0152300D01*
X0269000Y0152067D01*
X0268865Y0151212D01*
X0268597Y0150389D01*
X0268204Y0149617D01*
X0267695Y0148917D01*
X0267083Y0148305D01*
X0266383Y0147796D01*
X0265611Y0147403D01*
X0264788Y0147135D01*
X0263933Y0147000D01*
X0263700Y0147000D01*
X0263700Y0152300D01*
X0263700Y0151260D02*
X0263300Y0151260D01*
X0263300Y0149662D02*
X0263700Y0149662D01*
X0263700Y0148063D02*
X0263300Y0148063D01*
X0260250Y0148063D02*
X0256100Y0148063D01*
X0256100Y0146465D02*
X0299401Y0146465D01*
X0299401Y0144866D02*
X0256100Y0144866D01*
X0256100Y0143268D02*
X0299617Y0143268D01*
X0300279Y0141669D02*
X0256100Y0141669D01*
X0256100Y0140070D02*
X0301268Y0140070D01*
X0302867Y0138472D02*
X0256100Y0138472D01*
X0250900Y0138472D02*
X0237523Y0138472D01*
X0237485Y0136873D02*
X0250900Y0136873D01*
X0250900Y0135275D02*
X0246023Y0135275D01*
X0246599Y0133676D02*
X0249379Y0133676D01*
X0253500Y0129740D02*
X0243500Y0129740D01*
X0242240Y0131000D01*
X0234760Y0131000D02*
X0234750Y0131250D01*
X0235000Y0141750D01*
X0235750Y0143510D01*
X0239431Y0143268D02*
X0250900Y0143268D01*
X0250900Y0144866D02*
X0239431Y0144866D01*
X0239103Y0146465D02*
X0250900Y0146465D01*
X0250900Y0148063D02*
X0249000Y0148063D01*
X0249000Y0149662D02*
X0249560Y0149662D01*
X0253500Y0153500D02*
X0253500Y0129740D01*
X0258253Y0130479D02*
X0261247Y0130479D01*
X0261247Y0130220D02*
X0265520Y0130220D01*
X0265520Y0134099D01*
X0262810Y0134099D01*
X0262352Y0133977D01*
X0261942Y0133740D01*
X0261607Y0133404D01*
X0261370Y0132994D01*
X0261247Y0132536D01*
X0261247Y0130220D01*
X0261247Y0128881D02*
X0258253Y0128881D01*
X0258253Y0127282D02*
X0261247Y0127282D01*
X0261367Y0125684D02*
X0258133Y0125684D01*
X0253500Y0122260D02*
X0252260Y0123500D01*
X0228500Y0123500D01*
X0223500Y0128500D01*
X0223500Y0136000D01*
X0218500Y0141000D01*
X0218500Y0151000D01*
X0216000Y0153500D01*
X0126000Y0153500D01*
X0116000Y0143500D01*
X0116000Y0123500D01*
X0112000Y0119250D01*
X0095250Y0119250D01*
X0089244Y0113244D01*
X0089250Y0113000D01*
X0094009Y0111297D02*
X0094491Y0111297D01*
X0095412Y0109699D02*
X0093088Y0109699D01*
X0090612Y0108100D02*
X0097888Y0108100D01*
X0100612Y0108100D02*
X0107888Y0108100D01*
X0110612Y0108100D02*
X0117888Y0108100D01*
X0120612Y0108100D02*
X0126150Y0108100D01*
X0126150Y0106502D02*
X0087100Y0106502D01*
X0087100Y0108100D02*
X0087888Y0108100D01*
X0087100Y0104903D02*
X0126150Y0104903D01*
X0126150Y0103305D02*
X0087100Y0103305D01*
X0087100Y0101706D02*
X0127117Y0101706D01*
X0128715Y0100108D02*
X0087100Y0100108D01*
X0087100Y0098509D02*
X0130314Y0098509D01*
X0131912Y0096911D02*
X0087100Y0096911D01*
X0087100Y0095312D02*
X0133511Y0095312D01*
X0135109Y0093714D02*
X0087100Y0093714D01*
X0087100Y0092115D02*
X0136708Y0092115D01*
X0137150Y0090517D02*
X0087100Y0090517D01*
X0087759Y0088918D02*
X0137150Y0088918D01*
X0135522Y0087320D02*
X0089357Y0087320D01*
X0090956Y0085721D02*
X0135401Y0085721D01*
X0135401Y0084123D02*
X0092554Y0084123D01*
X0094153Y0082524D02*
X0135401Y0082524D01*
X0135401Y0080926D02*
X0095751Y0080926D01*
X0097350Y0079327D02*
X0135875Y0079327D01*
X0139760Y0083500D02*
X0139750Y0083510D01*
X0139750Y0092750D01*
X0128750Y0103750D01*
X0128750Y0112750D01*
X0129112Y0112750D01*
X0129250Y0113000D01*
X0134298Y0112896D02*
X0173491Y0112896D01*
X0173491Y0114494D02*
X0134095Y0114494D01*
X0134298Y0114004D02*
X0133530Y0115859D01*
X0132109Y0117280D01*
X0130254Y0118048D01*
X0128246Y0118048D01*
X0126391Y0117280D01*
X0124970Y0115859D01*
X0124250Y0114120D01*
X0123530Y0115859D01*
X0122109Y0117280D01*
X0120254Y0118048D01*
X0118246Y0118048D01*
X0116391Y0117280D01*
X0114970Y0115859D01*
X0114250Y0114120D01*
X0113530Y0115859D01*
X0112683Y0116706D01*
X0113031Y0116863D01*
X0113473Y0117046D01*
X0113502Y0117075D01*
X0113539Y0117091D01*
X0113866Y0117439D01*
X0114204Y0117777D01*
X0114220Y0117815D01*
X0117866Y0121690D01*
X0118204Y0122027D01*
X0118220Y0122065D01*
X0118248Y0122095D01*
X0118417Y0122541D01*
X0118600Y0122983D01*
X0118600Y0123024D01*
X0118614Y0123062D01*
X0118600Y0123539D01*
X0118600Y0142423D01*
X0127077Y0150900D01*
X0214923Y0150900D01*
X0215900Y0149923D01*
X0215900Y0140483D01*
X0216296Y0139527D01*
X0217027Y0138796D01*
X0220900Y0134923D01*
X0220900Y0130398D01*
X0220545Y0130753D01*
X0215800Y0130753D01*
X0215800Y0130953D01*
X0212300Y0134453D01*
X0210953Y0135800D01*
X0203953Y0135800D01*
X0202181Y0137572D01*
X0202181Y0139903D01*
X0202863Y0140585D01*
X0203646Y0142476D01*
X0203646Y0144524D01*
X0202863Y0146415D01*
X0201415Y0147863D01*
X0199524Y0148646D01*
X0197476Y0148646D01*
X0195585Y0147863D01*
X0194137Y0146415D01*
X0193354Y0144524D01*
X0193354Y0142476D01*
X0194137Y0140585D01*
X0194819Y0139903D01*
X0194819Y0135373D01*
X0195873Y0134319D01*
X0198928Y0134319D01*
X0202047Y0131200D01*
X0209047Y0131200D01*
X0209495Y0130753D01*
X0206455Y0130753D01*
X0205401Y0129698D01*
X0205401Y0128289D01*
X0205197Y0128204D01*
X0204465Y0127473D01*
X0204069Y0126517D01*
X0204069Y0120509D01*
X0203168Y0120509D01*
X0202113Y0119454D01*
X0202113Y0114026D01*
X0203139Y0113000D01*
X0202113Y0111974D01*
X0202113Y0111860D01*
X0199100Y0111860D01*
X0199100Y0121017D01*
X0198704Y0121973D01*
X0197973Y0122704D01*
X0197931Y0122746D01*
X0197931Y0125377D01*
X0196877Y0126431D01*
X0191623Y0126431D01*
X0190569Y0125377D01*
X0190569Y0120123D01*
X0191623Y0119069D01*
X0193900Y0119069D01*
X0193900Y0113517D01*
X0193544Y0113873D01*
X0192588Y0114269D01*
X0188509Y0114269D01*
X0188509Y0115171D01*
X0187454Y0116225D01*
X0184164Y0116225D01*
X0184768Y0116829D01*
X0184768Y0123832D01*
X0183714Y0124887D01*
X0183600Y0124887D01*
X0183600Y0141819D01*
X0183627Y0141819D01*
X0184681Y0142873D01*
X0184681Y0148127D01*
X0183627Y0149181D01*
X0178373Y0149181D01*
X0177319Y0148127D01*
X0177319Y0142873D01*
X0178373Y0141819D01*
X0178400Y0141819D01*
X0178400Y0124887D01*
X0178286Y0124887D01*
X0177231Y0123832D01*
X0177231Y0116829D01*
X0177836Y0116225D01*
X0174546Y0116225D01*
X0173491Y0115171D01*
X0173491Y0108168D01*
X0174546Y0107113D01*
X0174660Y0107113D01*
X0174660Y0105753D01*
X0173955Y0105753D01*
X0172901Y0104698D01*
X0172901Y0097302D01*
X0173955Y0096247D01*
X0174660Y0096247D01*
X0174660Y0094099D01*
X0172302Y0094099D01*
X0171247Y0093045D01*
X0171247Y0086436D01*
X0171683Y0086000D01*
X0171247Y0085564D01*
X0171247Y0081100D01*
X0169887Y0081100D01*
X0169887Y0081214D01*
X0168832Y0082268D01*
X0161829Y0082268D01*
X0161225Y0081664D01*
X0161225Y0084954D01*
X0160171Y0086009D01*
X0157407Y0086009D01*
X0157186Y0086100D01*
X0151599Y0086100D01*
X0151599Y0087198D01*
X0150545Y0088253D01*
X0143936Y0088253D01*
X0143500Y0087817D01*
X0143064Y0088253D01*
X0142350Y0088253D01*
X0142350Y0093267D01*
X0141954Y0094223D01*
X0131350Y0104827D01*
X0131350Y0108406D01*
X0132109Y0108720D01*
X0133530Y0110141D01*
X0134298Y0111996D01*
X0134298Y0114004D01*
X0133296Y0116093D02*
X0174413Y0116093D01*
X0177231Y0117691D02*
X0131115Y0117691D01*
X0127385Y0117691D02*
X0121115Y0117691D01*
X0123296Y0116093D02*
X0125204Y0116093D01*
X0124405Y0114494D02*
X0124095Y0114494D01*
X0124009Y0111297D02*
X0124491Y0111297D01*
X0125412Y0109699D02*
X0123088Y0109699D01*
X0115412Y0109699D02*
X0113088Y0109699D01*
X0114009Y0111297D02*
X0114491Y0111297D01*
X0114405Y0114494D02*
X0114095Y0114494D01*
X0113296Y0116093D02*
X0115204Y0116093D01*
X0114118Y0117691D02*
X0117385Y0117691D01*
X0115608Y0119290D02*
X0177231Y0119290D01*
X0177231Y0120888D02*
X0117112Y0120888D01*
X0118396Y0122487D02*
X0177231Y0122487D01*
X0177485Y0124085D02*
X0118600Y0124085D01*
X0118600Y0125684D02*
X0178400Y0125684D01*
X0178400Y0127282D02*
X0118600Y0127282D01*
X0118600Y0128881D02*
X0178400Y0128881D01*
X0178400Y0130479D02*
X0118600Y0130479D01*
X0118600Y0132078D02*
X0178400Y0132078D01*
X0178400Y0133676D02*
X0118600Y0133676D01*
X0118600Y0135275D02*
X0178400Y0135275D01*
X0178400Y0136873D02*
X0118600Y0136873D01*
X0118600Y0138472D02*
X0178400Y0138472D01*
X0178400Y0140070D02*
X0118600Y0140070D01*
X0118600Y0141669D02*
X0178400Y0141669D01*
X0177319Y0143268D02*
X0119444Y0143268D01*
X0121043Y0144866D02*
X0177319Y0144866D01*
X0177319Y0146465D02*
X0122641Y0146465D01*
X0124240Y0148063D02*
X0177319Y0148063D01*
X0181000Y0145500D02*
X0181000Y0120331D01*
X0184768Y0120888D02*
X0190569Y0120888D01*
X0190569Y0122487D02*
X0184768Y0122487D01*
X0184515Y0124085D02*
X0190569Y0124085D01*
X0190876Y0125684D02*
X0183600Y0125684D01*
X0183600Y0127282D02*
X0204386Y0127282D01*
X0204069Y0125684D02*
X0197624Y0125684D01*
X0197931Y0124085D02*
X0204069Y0124085D01*
X0204069Y0122487D02*
X0198190Y0122487D01*
X0199100Y0120888D02*
X0204069Y0120888D01*
X0202113Y0119290D02*
X0199100Y0119290D01*
X0199100Y0117691D02*
X0202113Y0117691D01*
X0202113Y0116093D02*
X0199100Y0116093D01*
X0199100Y0114494D02*
X0202113Y0114494D01*
X0203035Y0112896D02*
X0199100Y0112896D01*
X0193900Y0114494D02*
X0188509Y0114494D01*
X0187587Y0116093D02*
X0193900Y0116093D01*
X0193900Y0117691D02*
X0184768Y0117691D01*
X0184768Y0119290D02*
X0191402Y0119290D01*
X0194250Y0122750D02*
X0196500Y0120500D01*
X0196500Y0107240D01*
X0198520Y0109260D01*
X0206669Y0109260D01*
X0215331Y0113000D02*
X0216000Y0113669D01*
X0216000Y0117500D01*
X0223000Y0120240D02*
X0217240Y0126000D01*
X0221599Y0125684D02*
X0222639Y0125684D01*
X0222832Y0124085D02*
X0224238Y0124085D01*
X0224430Y0122487D02*
X0225836Y0122487D01*
X0225546Y0120888D02*
X0248747Y0120888D01*
X0248747Y0119290D02*
X0225600Y0119290D01*
X0225600Y0117691D02*
X0362500Y0117691D01*
X0362500Y0116093D02*
X0225600Y0116093D01*
X0223000Y0120240D02*
X0223000Y0105000D01*
X0214500Y0096500D01*
X0214500Y0096250D01*
X0212500Y0094250D01*
X0205250Y0094250D01*
X0199740Y0099760D01*
X0196500Y0099760D01*
X0196500Y0080138D01*
X0193744Y0077382D01*
X0186051Y0077382D01*
X0181000Y0072331D01*
X0177231Y0072933D02*
X0161225Y0072933D01*
X0161225Y0072554D02*
X0161225Y0074576D01*
X0156854Y0074576D01*
X0156854Y0070991D01*
X0159662Y0070991D01*
X0160120Y0071114D01*
X0160530Y0071351D01*
X0160866Y0071686D01*
X0161103Y0072097D01*
X0161225Y0072554D01*
X0160502Y0071334D02*
X0177231Y0071334D01*
X0177231Y0069736D02*
X0146441Y0069736D01*
X0148039Y0068137D02*
X0174458Y0068137D01*
X0173491Y0066539D02*
X0149638Y0066539D01*
X0151236Y0064940D02*
X0173491Y0064940D01*
X0173491Y0063342D02*
X0152835Y0063342D01*
X0154434Y0061743D02*
X0173491Y0061743D01*
X0173514Y0060145D02*
X0156032Y0060145D01*
X0157631Y0058546D02*
X0173749Y0058546D01*
X0173247Y0056948D02*
X0159229Y0056948D01*
X0160828Y0055349D02*
X0173247Y0055349D01*
X0173247Y0053751D02*
X0162426Y0053751D01*
X0164025Y0052152D02*
X0173247Y0052152D01*
X0173247Y0050554D02*
X0165623Y0050554D01*
X0165240Y0047260D02*
X0178000Y0047260D01*
X0206500Y0047260D01*
X0207500Y0048260D01*
X0212253Y0048955D02*
X0280900Y0048955D01*
X0280900Y0047357D02*
X0212253Y0047357D01*
X0212253Y0045758D02*
X0280900Y0045758D01*
X0280900Y0044160D02*
X0211457Y0044160D01*
X0203543Y0044160D02*
X0182753Y0044160D01*
X0173247Y0044160D02*
X0106449Y0044160D01*
X0103976Y0044160D02*
X0098575Y0044160D01*
X0096102Y0044160D02*
X0090701Y0044160D01*
X0088228Y0044160D02*
X0082827Y0044160D01*
X0080354Y0044160D02*
X0074953Y0044160D01*
X0072480Y0044160D02*
X0067079Y0044160D01*
X0064606Y0044160D02*
X0059205Y0044160D01*
X0056732Y0044160D02*
X0051331Y0044160D01*
X0048858Y0044160D02*
X0043457Y0044160D01*
X0040984Y0044160D02*
X0035583Y0044160D01*
X0037983Y0042561D02*
X0038583Y0042561D01*
X0045857Y0042561D02*
X0046457Y0042561D01*
X0053731Y0042561D02*
X0054332Y0042561D01*
X0061605Y0042561D02*
X0062206Y0042561D01*
X0069480Y0042561D02*
X0070080Y0042561D01*
X0077354Y0042561D02*
X0077954Y0042561D01*
X0085228Y0042561D02*
X0085828Y0042561D01*
X0093102Y0042561D02*
X0093702Y0042561D01*
X0100976Y0042561D02*
X0101576Y0042561D01*
X0108850Y0042561D02*
X0280900Y0042561D01*
X0280900Y0040963D02*
X0109666Y0040963D01*
X0102233Y0036167D02*
X0100318Y0036167D01*
X0094359Y0036167D02*
X0092444Y0036167D01*
X0086485Y0036167D02*
X0084570Y0036167D01*
X0078611Y0036167D02*
X0076696Y0036167D01*
X0070737Y0036167D02*
X0068822Y0036167D01*
X0066156Y0048955D02*
X0062344Y0048955D01*
X0063701Y0050554D02*
X0064799Y0050554D01*
X0072344Y0048955D02*
X0076156Y0048955D01*
X0074799Y0050554D02*
X0073701Y0050554D01*
X0082344Y0048955D02*
X0086156Y0048955D01*
X0084799Y0050554D02*
X0083701Y0050554D01*
X0083741Y0055349D02*
X0084759Y0055349D01*
X0086059Y0056948D02*
X0082441Y0056948D01*
X0076059Y0056948D02*
X0072441Y0056948D01*
X0073741Y0055349D02*
X0074759Y0055349D01*
X0066059Y0056948D02*
X0062441Y0056948D01*
X0063741Y0055349D02*
X0064759Y0055349D01*
X0056059Y0056948D02*
X0052404Y0056948D01*
X0054000Y0057638D02*
X0049250Y0053000D01*
X0048967Y0053751D02*
X0049533Y0053751D01*
X0049533Y0055349D02*
X0048967Y0055349D01*
X0048967Y0056948D02*
X0049533Y0056948D01*
X0046096Y0056948D02*
X0042441Y0056948D01*
X0043741Y0055349D02*
X0044782Y0055349D01*
X0044298Y0054004D02*
X0044298Y0054004D01*
X0048967Y0052152D02*
X0049533Y0052152D01*
X0049533Y0050554D02*
X0048967Y0050554D01*
X0048967Y0048955D02*
X0049533Y0048955D01*
X0052271Y0048955D02*
X0056156Y0048955D01*
X0054799Y0050554D02*
X0053669Y0050554D01*
X0054202Y0051996D02*
X0054202Y0051996D01*
X0053718Y0055349D02*
X0054759Y0055349D01*
X0054000Y0057638D02*
X0054000Y0087081D01*
X0054000Y0087081D01*
X0054000Y0090652D01*
X0055812Y0090652D01*
X0056270Y0090530D01*
X0056680Y0090293D01*
X0057015Y0089958D01*
X0057252Y0089547D01*
X0057375Y0089089D01*
X0057375Y0087081D01*
X0054000Y0087081D01*
X0054000Y0090652D01*
X0052188Y0090652D01*
X0051730Y0090530D01*
X0051320Y0090293D01*
X0050985Y0089958D01*
X0050748Y0089547D01*
X0050625Y0089089D01*
X0050625Y0087081D01*
X0054000Y0087081D01*
X0054000Y0087081D01*
X0054000Y0087081D01*
X0057375Y0087081D01*
X0057375Y0085072D01*
X0057252Y0084614D01*
X0057015Y0084204D01*
X0056680Y0083869D01*
X0056270Y0083632D01*
X0055812Y0083509D01*
X0054000Y0083509D01*
X0054000Y0087081D01*
X0050625Y0087081D01*
X0050625Y0085072D01*
X0050748Y0084614D01*
X0050985Y0084204D01*
X0051320Y0083869D01*
X0051730Y0083632D01*
X0052188Y0083509D01*
X0054000Y0083509D01*
X0054000Y0087081D01*
X0054000Y0087081D01*
X0054000Y0087320D02*
X0054000Y0087320D01*
X0054000Y0088918D02*
X0054000Y0088918D01*
X0054000Y0090517D02*
X0054000Y0090517D01*
X0051708Y0090517D02*
X0043712Y0090517D01*
X0043712Y0092115D02*
X0060958Y0092115D01*
X0062150Y0090517D02*
X0056292Y0090517D01*
X0057375Y0088918D02*
X0062150Y0088918D01*
X0062150Y0087320D02*
X0057375Y0087320D01*
X0057375Y0085721D02*
X0062150Y0085721D01*
X0062150Y0084123D02*
X0056934Y0084123D01*
X0054000Y0084123D02*
X0054000Y0084123D01*
X0054000Y0085721D02*
X0054000Y0085721D01*
X0051066Y0084123D02*
X0048627Y0084123D01*
X0047029Y0085721D02*
X0050625Y0085721D01*
X0050625Y0087320D02*
X0045430Y0087320D01*
X0043832Y0088918D02*
X0050625Y0088918D01*
X0041112Y0087961D02*
X0041112Y0104750D01*
X0019750Y0104750D01*
X0013250Y0111250D01*
X0013250Y0120000D01*
X0015500Y0123250D01*
X0030000Y0123250D01*
X0034346Y0126596D01*
X0034346Y0126307D01*
X0033289Y0125750D01*
X0029746Y0127282D02*
X0003300Y0127282D01*
X0003300Y0125684D02*
X0014477Y0125684D01*
X0012916Y0124085D02*
X0003300Y0124085D01*
X0003300Y0122487D02*
X0011809Y0122487D01*
X0010782Y0120888D02*
X0003300Y0120888D01*
X0003300Y0119290D02*
X0010650Y0119290D01*
X0010650Y0117691D02*
X0003300Y0117691D01*
X0003300Y0116093D02*
X0010650Y0116093D01*
X0010650Y0114494D02*
X0003300Y0114494D01*
X0003300Y0112896D02*
X0007878Y0112896D01*
X0010622Y0112896D02*
X0010650Y0112896D01*
X0005408Y0111297D02*
X0003300Y0111297D01*
X0003300Y0109699D02*
X0004490Y0109699D01*
X0004202Y0108100D02*
X0003300Y0108100D01*
X0003300Y0106502D02*
X0004407Y0106502D01*
X0005208Y0104903D02*
X0003300Y0104903D01*
X0003300Y0103305D02*
X0007394Y0103305D01*
X0005817Y0101706D02*
X0003300Y0101706D01*
X0003300Y0100108D02*
X0004659Y0100108D01*
X0004202Y0098509D02*
X0003300Y0098509D01*
X0003300Y0096911D02*
X0004237Y0096911D01*
X0004899Y0095312D02*
X0003300Y0095312D01*
X0003300Y0093714D02*
X0006407Y0093714D01*
X0006226Y0092115D02*
X0003300Y0092115D01*
X0003300Y0090517D02*
X0004828Y0090517D01*
X0004202Y0088918D02*
X0003300Y0088918D01*
X0003300Y0087320D02*
X0004202Y0087320D01*
X0004730Y0085721D02*
X0003300Y0085721D01*
X0003300Y0084123D02*
X0005988Y0084123D01*
X0006981Y0082524D02*
X0003300Y0082524D01*
X0003300Y0080926D02*
X0005037Y0080926D01*
X0004336Y0079327D02*
X0003300Y0079327D01*
X0003300Y0077729D02*
X0004202Y0077729D01*
X0004561Y0076130D02*
X0003300Y0076130D01*
X0003300Y0074532D02*
X0005579Y0074532D01*
X0003300Y0072933D02*
X0007968Y0072933D01*
X0010532Y0072933D02*
X0096390Y0072933D01*
X0094792Y0074532D02*
X0012921Y0074532D01*
X0013939Y0076130D02*
X0047051Y0076130D01*
X0046885Y0077729D02*
X0014298Y0077729D01*
X0014164Y0079327D02*
X0046069Y0079327D01*
X0044470Y0080926D02*
X0013463Y0080926D01*
X0011519Y0082524D02*
X0042872Y0082524D01*
X0041273Y0084123D02*
X0012512Y0084123D01*
X0013770Y0085721D02*
X0039675Y0085721D01*
X0038563Y0087320D02*
X0014298Y0087320D01*
X0014298Y0088918D02*
X0038512Y0088918D01*
X0038512Y0090517D02*
X0013672Y0090517D01*
X0012274Y0092115D02*
X0038512Y0092115D01*
X0038512Y0093714D02*
X0012093Y0093714D01*
X0013601Y0095312D02*
X0038512Y0095312D01*
X0038512Y0096911D02*
X0014263Y0096911D01*
X0014298Y0098509D02*
X0038512Y0098509D01*
X0038512Y0100108D02*
X0013841Y0100108D01*
X0012683Y0101706D02*
X0038512Y0101706D01*
X0043712Y0101706D02*
X0049322Y0101706D01*
X0049202Y0103305D02*
X0043712Y0103305D01*
X0044915Y0104903D02*
X0049574Y0104903D01*
X0050613Y0106502D02*
X0046492Y0106502D01*
X0050612Y0108100D02*
X0056648Y0108100D01*
X0055412Y0109699D02*
X0053088Y0109699D01*
X0054009Y0111297D02*
X0054491Y0111297D01*
X0049250Y0113000D02*
X0041112Y0104750D01*
X0040025Y0107350D02*
X0020827Y0107350D01*
X0020225Y0107952D01*
X0020254Y0107952D01*
X0022109Y0108720D01*
X0023530Y0110141D01*
X0024298Y0111996D01*
X0024298Y0111996D01*
X0024326Y0111818D01*
X0024572Y0111062D01*
X0024933Y0110354D01*
X0025400Y0109711D01*
X0025961Y0109150D01*
X0026604Y0108683D01*
X0027312Y0108322D01*
X0028068Y0108076D01*
X0028853Y0107952D01*
X0028967Y0107952D01*
X0028967Y0112717D01*
X0029533Y0112717D01*
X0029533Y0107952D01*
X0029647Y0107952D01*
X0030432Y0108076D01*
X0031188Y0108322D01*
X0031896Y0108683D01*
X0032539Y0109150D01*
X0033100Y0109711D01*
X0033567Y0110354D01*
X0033928Y0111062D01*
X0034174Y0111818D01*
X0034202Y0111996D01*
X0034970Y0110141D01*
X0036391Y0108720D01*
X0038246Y0107952D01*
X0040254Y0107952D01*
X0040870Y0108207D01*
X0040025Y0107350D01*
X0040612Y0108100D02*
X0040765Y0108100D01*
X0037888Y0108100D02*
X0030506Y0108100D01*
X0029533Y0108100D02*
X0028967Y0108100D01*
X0027994Y0108100D02*
X0020612Y0108100D01*
X0023088Y0109699D02*
X0025412Y0109699D01*
X0024495Y0111297D02*
X0024009Y0111297D01*
X0028967Y0111297D02*
X0029533Y0111297D01*
X0029533Y0109699D02*
X0028967Y0109699D01*
X0033088Y0109699D02*
X0035412Y0109699D01*
X0034491Y0111297D02*
X0034005Y0111297D01*
X0034202Y0111996D02*
X0034202Y0111996D01*
X0026362Y0120250D02*
X0019250Y0113000D01*
X0014321Y0106502D02*
X0014093Y0106502D01*
X0013292Y0104903D02*
X0015920Y0104903D01*
X0017518Y0103305D02*
X0011106Y0103305D01*
X0043712Y0100108D02*
X0050003Y0100108D01*
X0051901Y0098509D02*
X0043712Y0098509D01*
X0043712Y0096911D02*
X0056676Y0096911D01*
X0056644Y0098509D02*
X0056599Y0098509D01*
X0059244Y0097506D02*
X0059250Y0113000D01*
X0064009Y0111297D02*
X0064491Y0111297D01*
X0065412Y0109699D02*
X0063088Y0109699D01*
X0061848Y0108100D02*
X0067888Y0108100D01*
X0067887Y0106502D02*
X0081900Y0106502D01*
X0081900Y0108100D02*
X0080612Y0108100D01*
X0077888Y0108100D02*
X0070612Y0108100D01*
X0073088Y0109699D02*
X0075412Y0109699D01*
X0074491Y0111297D02*
X0074009Y0111297D01*
X0068926Y0104903D02*
X0081900Y0104903D01*
X0081900Y0103305D02*
X0069298Y0103305D01*
X0069178Y0101706D02*
X0081900Y0101706D01*
X0081900Y0100108D02*
X0068497Y0100108D01*
X0066599Y0098509D02*
X0081900Y0098509D01*
X0081900Y0096911D02*
X0063516Y0096911D01*
X0065115Y0095312D02*
X0081900Y0095312D01*
X0081900Y0093714D02*
X0066713Y0093714D01*
X0067350Y0092115D02*
X0081900Y0092115D01*
X0081900Y0090517D02*
X0067350Y0090517D01*
X0067350Y0088918D02*
X0081900Y0088918D01*
X0082175Y0087320D02*
X0067350Y0087320D01*
X0067350Y0085721D02*
X0083602Y0085721D01*
X0085200Y0084123D02*
X0067350Y0084123D01*
X0067350Y0082524D02*
X0086799Y0082524D01*
X0088397Y0080926D02*
X0067016Y0080926D01*
X0065504Y0079327D02*
X0089996Y0079327D01*
X0091595Y0077729D02*
X0063905Y0077729D01*
X0061313Y0078813D02*
X0064750Y0082250D01*
X0064750Y0092000D01*
X0059244Y0097506D01*
X0057761Y0095312D02*
X0043712Y0095312D01*
X0043712Y0093714D02*
X0059359Y0093714D01*
X0050260Y0078813D02*
X0041112Y0087961D01*
X0050226Y0082524D02*
X0061347Y0082524D01*
X0061313Y0078813D02*
X0057740Y0078813D01*
X0054365Y0079327D02*
X0053635Y0079327D01*
X0053635Y0077729D02*
X0054365Y0077729D01*
X0054531Y0076130D02*
X0053469Y0076130D01*
X0060949Y0076130D02*
X0093193Y0076130D01*
X0098948Y0077729D02*
X0152412Y0077729D01*
X0152312Y0079327D02*
X0151125Y0079327D01*
X0152113Y0076130D02*
X0100547Y0076130D01*
X0102145Y0074532D02*
X0152113Y0074532D01*
X0152113Y0072933D02*
X0103744Y0072933D01*
X0099587Y0069736D02*
X0013995Y0069736D01*
X0014298Y0068137D02*
X0101186Y0068137D01*
X0102784Y0066539D02*
X0014109Y0066539D01*
X0013329Y0064940D02*
X0104383Y0064940D01*
X0105981Y0063342D02*
X0011196Y0063342D01*
X0012646Y0061743D02*
X0106650Y0061743D01*
X0106650Y0060145D02*
X0013825Y0060145D01*
X0014298Y0058546D02*
X0106650Y0058546D01*
X0106059Y0056948D02*
X0102441Y0056948D01*
X0103741Y0055349D02*
X0104759Y0055349D01*
X0109250Y0053000D02*
X0109250Y0052888D01*
X0109250Y0053000D02*
X0109250Y0063750D01*
X0084500Y0088500D01*
X0084500Y0118000D01*
X0088000Y0121500D01*
X0092250Y0121500D01*
X0097307Y0126807D01*
X0097339Y0126307D01*
X0101251Y0128881D02*
X0101397Y0128881D01*
X0103269Y0130479D02*
X0099286Y0130479D01*
X0095391Y0130479D02*
X0091412Y0130479D01*
X0093377Y0128881D02*
X0093426Y0128881D01*
X0087517Y0130479D02*
X0083538Y0130479D01*
X0085503Y0128881D02*
X0085552Y0128881D01*
X0079643Y0130479D02*
X0075664Y0130479D01*
X0077629Y0128881D02*
X0077678Y0128881D01*
X0071769Y0130479D02*
X0067790Y0130479D01*
X0069755Y0128881D02*
X0069804Y0128881D01*
X0063895Y0130479D02*
X0059916Y0130479D01*
X0061881Y0128881D02*
X0061930Y0128881D01*
X0056021Y0130479D02*
X0052042Y0130479D01*
X0054007Y0128881D02*
X0054056Y0128881D01*
X0048147Y0130479D02*
X0044168Y0130479D01*
X0046133Y0128881D02*
X0046182Y0128881D01*
X0040273Y0130479D02*
X0038320Y0130479D01*
X0032929Y0133676D02*
X0113400Y0133676D01*
X0113400Y0132078D02*
X0031331Y0132078D01*
X0030373Y0130479D02*
X0029824Y0130479D01*
X0029746Y0128881D02*
X0028134Y0128881D01*
X0034528Y0135275D02*
X0113400Y0135275D01*
X0113400Y0136873D02*
X0036126Y0136873D01*
X0037300Y0138472D02*
X0052867Y0138472D01*
X0053129Y0138210D02*
X0056290Y0136901D01*
X0059710Y0136901D01*
X0062871Y0138210D01*
X0065290Y0140629D01*
X0066599Y0143790D01*
X0066599Y0147210D01*
X0065290Y0150371D01*
X0062871Y0152790D01*
X0059710Y0154099D01*
X0056290Y0154099D01*
X0053129Y0152790D01*
X0050710Y0150371D01*
X0049401Y0147210D01*
X0049401Y0143790D01*
X0050710Y0140629D01*
X0053129Y0138210D01*
X0051268Y0140070D02*
X0037300Y0140070D01*
X0037300Y0141669D02*
X0050279Y0141669D01*
X0049617Y0143268D02*
X0037300Y0143268D01*
X0037300Y0144866D02*
X0049401Y0144866D01*
X0049401Y0146465D02*
X0037300Y0146465D01*
X0037300Y0148063D02*
X0049754Y0148063D01*
X0050416Y0149662D02*
X0037300Y0149662D01*
X0037300Y0151260D02*
X0051599Y0151260D01*
X0053294Y0152859D02*
X0037300Y0152859D01*
X0037300Y0154457D02*
X0123280Y0154457D01*
X0121682Y0152859D02*
X0062706Y0152859D01*
X0064401Y0151260D02*
X0120083Y0151260D01*
X0118485Y0149662D02*
X0065584Y0149662D01*
X0066246Y0148063D02*
X0116886Y0148063D01*
X0115288Y0146465D02*
X0066599Y0146465D01*
X0066599Y0144866D02*
X0113752Y0144866D01*
X0113400Y0143268D02*
X0066383Y0143268D01*
X0065721Y0141669D02*
X0113400Y0141669D01*
X0113400Y0140070D02*
X0064732Y0140070D01*
X0063133Y0138472D02*
X0113400Y0138472D01*
X0113400Y0130479D02*
X0107156Y0130479D01*
X0105213Y0130479D02*
X0105213Y0130479D01*
X0105213Y0128881D02*
X0105213Y0128881D01*
X0105213Y0127282D02*
X0105213Y0127282D01*
X0109029Y0128881D02*
X0113400Y0128881D01*
X0113400Y0127282D02*
X0109715Y0127282D01*
X0109771Y0125684D02*
X0113400Y0125684D01*
X0112981Y0124085D02*
X0109243Y0124085D01*
X0107780Y0122487D02*
X0111476Y0122487D01*
X0104491Y0111297D02*
X0104009Y0111297D01*
X0103088Y0109699D02*
X0105412Y0109699D01*
X0131350Y0108100D02*
X0173559Y0108100D01*
X0173491Y0109699D02*
X0133088Y0109699D01*
X0134009Y0111297D02*
X0173491Y0111297D01*
X0177260Y0111669D02*
X0177260Y0101000D01*
X0177260Y0089740D01*
X0176000Y0089740D01*
X0180753Y0090517D02*
X0193900Y0090517D01*
X0193900Y0092115D02*
X0180753Y0092115D01*
X0180084Y0093714D02*
X0193900Y0093714D01*
X0193900Y0095312D02*
X0179860Y0095312D01*
X0174660Y0095312D02*
X0140865Y0095312D01*
X0142165Y0093714D02*
X0171916Y0093714D01*
X0171247Y0092115D02*
X0142350Y0092115D01*
X0142350Y0090517D02*
X0171247Y0090517D01*
X0171247Y0088918D02*
X0142350Y0088918D01*
X0147240Y0083500D02*
X0156669Y0083500D01*
X0156669Y0082240D01*
X0161225Y0082524D02*
X0171247Y0082524D01*
X0171247Y0084123D02*
X0161225Y0084123D01*
X0160458Y0085721D02*
X0171404Y0085721D01*
X0171247Y0087320D02*
X0151478Y0087320D01*
X0165331Y0078500D02*
X0176000Y0078500D01*
X0176000Y0082260D01*
X0180753Y0082524D02*
X0193900Y0082524D01*
X0193900Y0084123D02*
X0180753Y0084123D01*
X0180596Y0085721D02*
X0193900Y0085721D01*
X0193900Y0087320D02*
X0180753Y0087320D01*
X0180753Y0088918D02*
X0193900Y0088918D01*
X0199100Y0088918D02*
X0220371Y0088918D01*
X0221075Y0089623D02*
X0218877Y0087425D01*
X0217688Y0084554D01*
X0217688Y0081446D01*
X0218877Y0078575D01*
X0221075Y0076377D01*
X0223946Y0075188D01*
X0227054Y0075188D01*
X0229925Y0076377D01*
X0232123Y0078575D01*
X0233312Y0081446D01*
X0233312Y0084554D01*
X0232123Y0087425D01*
X0229925Y0089623D01*
X0227054Y0090812D01*
X0223946Y0090812D01*
X0221075Y0089623D01*
X0223234Y0090517D02*
X0199100Y0090517D01*
X0199100Y0092115D02*
X0203708Y0092115D01*
X0202109Y0093714D02*
X0199100Y0093714D01*
X0199100Y0095312D02*
X0200511Y0095312D01*
X0191747Y0096911D02*
X0188708Y0096911D01*
X0189099Y0098509D02*
X0191747Y0098509D01*
X0191747Y0100108D02*
X0189099Y0100108D01*
X0189099Y0101706D02*
X0191747Y0101706D01*
X0191987Y0103305D02*
X0189099Y0103305D01*
X0188894Y0104903D02*
X0191747Y0104903D01*
X0191747Y0106502D02*
X0187340Y0106502D01*
X0188441Y0108100D02*
X0191747Y0108100D01*
X0192071Y0111669D02*
X0196500Y0107240D01*
X0192071Y0111669D02*
X0184740Y0111669D01*
X0184740Y0101000D01*
X0172901Y0101706D02*
X0134471Y0101706D01*
X0136069Y0100108D02*
X0172901Y0100108D01*
X0172901Y0098509D02*
X0137668Y0098509D01*
X0139266Y0096911D02*
X0173292Y0096911D01*
X0172901Y0103305D02*
X0132872Y0103305D01*
X0131350Y0104903D02*
X0173106Y0104903D01*
X0174660Y0106502D02*
X0131350Y0106502D01*
X0183600Y0128881D02*
X0205401Y0128881D01*
X0206182Y0130479D02*
X0183600Y0130479D01*
X0183600Y0132078D02*
X0201169Y0132078D01*
X0199571Y0133676D02*
X0183600Y0133676D01*
X0183600Y0135275D02*
X0194917Y0135275D01*
X0194819Y0136873D02*
X0183600Y0136873D01*
X0183600Y0138472D02*
X0194819Y0138472D01*
X0194651Y0140070D02*
X0183600Y0140070D01*
X0183600Y0141669D02*
X0193688Y0141669D01*
X0193354Y0143268D02*
X0184681Y0143268D01*
X0184681Y0144866D02*
X0193495Y0144866D01*
X0194186Y0146465D02*
X0184681Y0146465D01*
X0184681Y0148063D02*
X0196068Y0148063D01*
X0200932Y0148063D02*
X0215900Y0148063D01*
X0215900Y0146465D02*
X0202814Y0146465D01*
X0203505Y0144866D02*
X0215900Y0144866D01*
X0215900Y0143268D02*
X0203646Y0143268D01*
X0203312Y0141669D02*
X0215900Y0141669D01*
X0216071Y0140070D02*
X0202349Y0140070D01*
X0202181Y0138472D02*
X0217351Y0138472D01*
X0217027Y0138796D02*
X0217027Y0138796D01*
X0218950Y0136873D02*
X0202879Y0136873D01*
X0211478Y0135275D02*
X0220548Y0135275D01*
X0220900Y0133676D02*
X0213076Y0133676D01*
X0214675Y0132078D02*
X0220900Y0132078D01*
X0220900Y0130479D02*
X0220818Y0130479D01*
X0226100Y0130479D02*
X0230401Y0130479D01*
X0230401Y0128881D02*
X0226796Y0128881D01*
X0228395Y0127282D02*
X0230420Y0127282D01*
X0230401Y0132078D02*
X0226100Y0132078D01*
X0226100Y0133676D02*
X0230401Y0133676D01*
X0230977Y0135275D02*
X0226100Y0135275D01*
X0225952Y0136873D02*
X0232283Y0136873D01*
X0232321Y0138472D02*
X0229810Y0138472D01*
X0227190Y0138472D02*
X0224705Y0138472D01*
X0224651Y0140070D02*
X0223106Y0140070D01*
X0223688Y0141669D02*
X0221508Y0141669D01*
X0221100Y0143268D02*
X0223354Y0143268D01*
X0223495Y0144866D02*
X0221100Y0144866D01*
X0221100Y0146465D02*
X0224186Y0146465D01*
X0226068Y0148063D02*
X0221100Y0148063D01*
X0221100Y0149662D02*
X0238000Y0149662D01*
X0238000Y0151260D02*
X0221100Y0151260D01*
X0220318Y0152859D02*
X0238000Y0152859D01*
X0238000Y0154457D02*
X0218720Y0154457D01*
X0218204Y0154973D02*
X0218204Y0154973D01*
X0216624Y0156056D02*
X0238000Y0156056D01*
X0238709Y0157654D02*
X0037300Y0157654D01*
X0037300Y0156056D02*
X0125376Y0156056D01*
X0125838Y0149662D02*
X0215900Y0149662D01*
X0230932Y0148063D02*
X0238000Y0148063D01*
X0239431Y0141669D02*
X0250900Y0141669D01*
X0250900Y0140070D02*
X0238618Y0140070D01*
X0232359Y0140070D02*
X0232349Y0140070D01*
X0257621Y0133676D02*
X0261879Y0133676D01*
X0261247Y0132078D02*
X0258253Y0132078D01*
X0265520Y0132078D02*
X0266480Y0132078D01*
X0266480Y0133676D02*
X0265520Y0133676D01*
X0265520Y0130479D02*
X0266480Y0130479D01*
X0266000Y0122260D02*
X0253500Y0122260D01*
X0258253Y0119290D02*
X0261247Y0119290D01*
X0298832Y0098509D02*
X0220186Y0098509D01*
X0218588Y0096911D02*
X0297234Y0096911D01*
X0296400Y0095312D02*
X0216989Y0095312D01*
X0215641Y0093714D02*
X0296400Y0093714D01*
X0296400Y0092115D02*
X0214042Y0092115D01*
X0218834Y0087320D02*
X0199100Y0087320D01*
X0199100Y0085721D02*
X0218172Y0085721D01*
X0217688Y0084123D02*
X0199100Y0084123D01*
X0199100Y0082524D02*
X0217688Y0082524D01*
X0217904Y0080926D02*
X0209640Y0080926D01*
X0208984Y0081582D02*
X0207244Y0081582D01*
X0205504Y0081582D01*
X0203044Y0079122D01*
X0203044Y0077382D01*
X0207244Y0077382D01*
X0207244Y0081582D01*
X0207244Y0077382D01*
X0207244Y0077382D01*
X0207244Y0077382D01*
X0203044Y0077382D01*
X0203044Y0075642D01*
X0205504Y0073182D01*
X0207244Y0073182D01*
X0207244Y0077382D01*
X0211444Y0077382D01*
X0211444Y0079122D01*
X0208984Y0081582D01*
X0207244Y0080926D02*
X0207244Y0080926D01*
X0207244Y0079327D02*
X0207244Y0079327D01*
X0207244Y0077729D02*
X0207244Y0077729D01*
X0207244Y0077382D02*
X0207244Y0077382D01*
X0207244Y0077382D01*
X0211444Y0077382D01*
X0211444Y0075642D01*
X0208984Y0073182D01*
X0207244Y0073182D01*
X0207244Y0077382D01*
X0207244Y0076130D02*
X0207244Y0076130D01*
X0207244Y0074532D02*
X0207244Y0074532D01*
X0204155Y0074532D02*
X0196833Y0074532D01*
X0197944Y0076130D02*
X0203044Y0076130D01*
X0203044Y0077729D02*
X0197944Y0077729D01*
X0198978Y0079327D02*
X0203250Y0079327D01*
X0204848Y0080926D02*
X0199100Y0080926D01*
X0191348Y0080926D02*
X0180753Y0080926D01*
X0180753Y0079327D02*
X0184319Y0079327D01*
X0182721Y0077729D02*
X0178495Y0077729D01*
X0177529Y0076130D02*
X0177073Y0076130D01*
X0177231Y0074532D02*
X0161225Y0074532D01*
X0156854Y0074532D02*
X0156485Y0074532D01*
X0156485Y0072933D02*
X0156854Y0072933D01*
X0156854Y0071334D02*
X0156485Y0071334D01*
X0152837Y0071334D02*
X0144842Y0071334D01*
X0177260Y0063669D02*
X0177260Y0055480D01*
X0178000Y0054740D01*
X0182753Y0055349D02*
X0202747Y0055349D01*
X0202747Y0053751D02*
X0182753Y0053751D01*
X0182753Y0052152D02*
X0203030Y0052152D01*
X0202747Y0050554D02*
X0182753Y0050554D01*
X0182753Y0056948D02*
X0202747Y0056948D01*
X0202747Y0058546D02*
X0182251Y0058546D01*
X0181137Y0060145D02*
X0181005Y0060145D01*
X0184556Y0060145D02*
X0184924Y0060145D01*
X0184924Y0061743D02*
X0184556Y0061743D01*
X0184556Y0063342D02*
X0184924Y0063342D01*
X0184924Y0063854D02*
X0188509Y0063854D01*
X0188509Y0066662D01*
X0188386Y0067120D01*
X0188149Y0067530D01*
X0187814Y0067866D01*
X0187403Y0068103D01*
X0186946Y0068225D01*
X0184924Y0068225D01*
X0184924Y0063854D01*
X0184924Y0064940D02*
X0184556Y0064940D01*
X0184556Y0066539D02*
X0184924Y0066539D01*
X0184924Y0068137D02*
X0184556Y0068137D01*
X0184768Y0069736D02*
X0190159Y0069736D01*
X0189544Y0069122D02*
X0189544Y0067382D01*
X0193744Y0067382D01*
X0193744Y0071582D01*
X0192004Y0071582D01*
X0189544Y0069122D01*
X0189544Y0068137D02*
X0187273Y0068137D01*
X0188509Y0066539D02*
X0189544Y0066539D01*
X0189544Y0067382D02*
X0189544Y0065642D01*
X0192004Y0063182D01*
X0193744Y0063182D01*
X0193744Y0067382D01*
X0193744Y0067382D01*
X0193744Y0067382D01*
X0193744Y0071582D01*
X0195484Y0071582D01*
X0197944Y0069122D01*
X0197944Y0067382D01*
X0193744Y0067382D01*
X0189544Y0067382D01*
X0190246Y0064940D02*
X0188509Y0064940D01*
X0188509Y0063342D02*
X0191844Y0063342D01*
X0193744Y0063342D02*
X0193744Y0063342D01*
X0193744Y0063182D02*
X0195484Y0063182D01*
X0197944Y0065642D01*
X0197944Y0067382D01*
X0193744Y0067382D01*
X0193744Y0067382D01*
X0193744Y0067382D01*
X0193744Y0063182D01*
X0193744Y0064940D02*
X0193744Y0064940D01*
X0193744Y0066539D02*
X0193744Y0066539D01*
X0193744Y0068137D02*
X0193744Y0068137D01*
X0193744Y0069736D02*
X0193744Y0069736D01*
X0193744Y0071334D02*
X0193744Y0071334D01*
X0191757Y0071334D02*
X0184768Y0071334D01*
X0185279Y0072933D02*
X0280900Y0072933D01*
X0280900Y0071334D02*
X0209231Y0071334D01*
X0210830Y0069736D02*
X0280900Y0069736D01*
X0280900Y0068137D02*
X0211444Y0068137D01*
X0211444Y0066539D02*
X0280900Y0066539D01*
X0280900Y0064940D02*
X0210742Y0064940D01*
X0209844Y0063342D02*
X0280900Y0063342D01*
X0280900Y0061743D02*
X0209844Y0061743D01*
X0209844Y0060145D02*
X0280900Y0060145D01*
X0280900Y0058546D02*
X0212253Y0058546D01*
X0212253Y0056948D02*
X0280900Y0056948D01*
X0280900Y0055349D02*
X0212253Y0055349D01*
X0212253Y0053751D02*
X0280900Y0053751D01*
X0280900Y0052152D02*
X0211970Y0052152D01*
X0212253Y0050554D02*
X0280900Y0050554D01*
X0286100Y0060145D02*
X0304297Y0060145D01*
X0304964Y0061743D02*
X0286100Y0061743D01*
X0286100Y0063342D02*
X0306145Y0063342D01*
X0282453Y0076130D02*
X0273028Y0076130D01*
X0273625Y0076377D02*
X0275823Y0078575D01*
X0277012Y0081446D01*
X0277012Y0084554D01*
X0275823Y0087425D01*
X0273625Y0089623D01*
X0270754Y0090812D01*
X0267646Y0090812D01*
X0264775Y0089623D01*
X0262577Y0087425D01*
X0261388Y0084554D01*
X0261388Y0081446D01*
X0262577Y0078575D01*
X0264775Y0076377D01*
X0267646Y0075188D01*
X0270754Y0075188D01*
X0273625Y0076377D01*
X0274976Y0077729D02*
X0284052Y0077729D01*
X0285650Y0079327D02*
X0276134Y0079327D01*
X0276796Y0080926D02*
X0287249Y0080926D01*
X0288847Y0082524D02*
X0277012Y0082524D01*
X0277012Y0084123D02*
X0290446Y0084123D01*
X0292044Y0085721D02*
X0276528Y0085721D01*
X0275866Y0087320D02*
X0293643Y0087320D01*
X0295241Y0088918D02*
X0274329Y0088918D01*
X0271466Y0090517D02*
X0296400Y0090517D01*
X0266934Y0090517D02*
X0227766Y0090517D01*
X0230629Y0088918D02*
X0264071Y0088918D01*
X0262534Y0087320D02*
X0232166Y0087320D01*
X0232828Y0085721D02*
X0261872Y0085721D01*
X0261388Y0084123D02*
X0233312Y0084123D01*
X0233312Y0082524D02*
X0261388Y0082524D01*
X0261604Y0080926D02*
X0233096Y0080926D01*
X0232434Y0079327D02*
X0262266Y0079327D01*
X0263424Y0077729D02*
X0231276Y0077729D01*
X0229328Y0076130D02*
X0265372Y0076130D01*
X0281113Y0074532D02*
X0210333Y0074532D01*
X0211444Y0076130D02*
X0221672Y0076130D01*
X0219724Y0077729D02*
X0211444Y0077729D01*
X0211239Y0079327D02*
X0218566Y0079327D01*
X0205257Y0071334D02*
X0195731Y0071334D01*
X0197330Y0069736D02*
X0203659Y0069736D01*
X0203044Y0068137D02*
X0197944Y0068137D01*
X0197944Y0066539D02*
X0203044Y0066539D01*
X0203746Y0064940D02*
X0197242Y0064940D01*
X0195644Y0063342D02*
X0204644Y0063342D01*
X0204644Y0061743D02*
X0188509Y0061743D01*
X0188343Y0060145D02*
X0204644Y0060145D01*
X0207244Y0055996D02*
X0207244Y0067382D01*
X0190655Y0074532D02*
X0186878Y0074532D01*
X0207244Y0055996D02*
X0207500Y0055740D01*
X0161466Y0047357D02*
X0003300Y0047357D01*
X0003300Y0048955D02*
X0016156Y0048955D01*
X0014799Y0050554D02*
X0003300Y0050554D01*
X0003300Y0052152D02*
X0014202Y0052152D01*
X0014202Y0053751D02*
X0012140Y0053751D01*
X0013616Y0055349D02*
X0014759Y0055349D01*
X0014278Y0056948D02*
X0016059Y0056948D01*
X0022441Y0056948D02*
X0026059Y0056948D01*
X0024759Y0055349D02*
X0023741Y0055349D01*
X0032441Y0056948D02*
X0036059Y0056948D01*
X0034759Y0055349D02*
X0033741Y0055349D01*
X0033701Y0050554D02*
X0034799Y0050554D01*
X0036156Y0048955D02*
X0032344Y0048955D01*
X0026156Y0048955D02*
X0022344Y0048955D01*
X0023701Y0050554D02*
X0024799Y0050554D01*
X0042344Y0048955D02*
X0046229Y0048955D01*
X0044831Y0050554D02*
X0043701Y0050554D01*
X0006360Y0053751D02*
X0003300Y0053751D01*
X0003300Y0055349D02*
X0004884Y0055349D01*
X0004222Y0056948D02*
X0003300Y0056948D01*
X0003300Y0058546D02*
X0004202Y0058546D01*
X0004675Y0060145D02*
X0003300Y0060145D01*
X0003300Y0061743D02*
X0005854Y0061743D01*
X0007304Y0063342D02*
X0003300Y0063342D01*
X0003300Y0064940D02*
X0005171Y0064940D01*
X0004391Y0066539D02*
X0003300Y0066539D01*
X0003300Y0068137D02*
X0004202Y0068137D01*
X0004505Y0069736D02*
X0003300Y0069736D01*
X0003300Y0071334D02*
X0005446Y0071334D01*
X0013054Y0071334D02*
X0097989Y0071334D01*
X0096059Y0056948D02*
X0092441Y0056948D01*
X0093741Y0055349D02*
X0094759Y0055349D01*
X0094799Y0050554D02*
X0093701Y0050554D01*
X0092344Y0048955D02*
X0096156Y0048955D01*
X0102344Y0048955D02*
X0106156Y0048955D01*
X0104799Y0050554D02*
X0103701Y0050554D01*
X0054365Y0080926D02*
X0053635Y0080926D01*
X0062000Y0120250D02*
X0026362Y0120250D01*
X0037300Y0159253D02*
X0328700Y0159253D01*
X0328700Y0160851D02*
X0037300Y0160851D01*
X0037300Y0162450D02*
X0328700Y0162450D01*
X0303294Y0152859D02*
X0269000Y0152859D01*
X0268872Y0151260D02*
X0301599Y0151260D01*
X0300416Y0149662D02*
X0268227Y0149662D01*
X0266750Y0148063D02*
X0299754Y0148063D01*
X0261564Y0157654D02*
X0257124Y0157654D01*
X0258395Y0156056D02*
X0259285Y0156056D01*
X0249876Y0157654D02*
X0248291Y0157654D01*
X0257440Y0149662D02*
X0258773Y0149662D01*
X0209760Y0126000D02*
X0206669Y0126000D01*
X0206669Y0116740D01*
X0199998Y0021781D02*
X0223002Y0021781D01*
X0221833Y0020182D02*
X0201167Y0020182D01*
X0196500Y0018000D02*
X0208500Y0006000D01*
X0193434Y0013788D02*
X0181086Y0013788D01*
X0181753Y0015387D02*
X0192012Y0015387D01*
X0196500Y0018000D02*
X0177240Y0018000D01*
X0177000Y0017760D01*
X0181598Y0021781D02*
X0193002Y0021781D01*
X0229998Y0021781D02*
X0243196Y0021781D01*
X0243196Y0020182D02*
X0231167Y0020182D01*
X0231646Y0018584D02*
X0243196Y0018584D01*
X0243196Y0016985D02*
X0231646Y0016985D01*
X0232790Y0015387D02*
X0243196Y0015387D01*
X0243296Y0013788D02*
X0234389Y0013788D01*
X0272874Y0004197D02*
X0328700Y0004197D01*
X0328700Y0005796D02*
X0274472Y0005796D01*
X0276071Y0007394D02*
X0328700Y0007394D01*
X0328700Y0008993D02*
X0277670Y0008993D01*
X0279268Y0010591D02*
X0328700Y0010591D01*
D25*
X0159750Y0034500D03*
X0161000Y0065000D03*
X0154000Y0113500D03*
X0194250Y0122750D03*
X0198500Y0138000D03*
X0181000Y0145500D03*
X0235750Y0143510D03*
X0062000Y0120250D03*
X0029250Y0098750D03*
D26*
X0198500Y0138000D02*
X0203000Y0133500D01*
X0210000Y0133500D01*
X0213500Y0130000D01*
X0213500Y0120000D01*
X0216000Y0117500D01*
M02*
